<?xml version="1.0" encoding="UTF-8" standalone="no"?><!DOCTYPE svg PUBLIC "-//W3C//DTD SVG 1.1//EN" "http://www.w3.org/Graphics/SVG/1.1/DTD/svg11.dtd"><svg width="100%" height="100%" viewBox="0 0 1344 943" version="1.1" xmlns="http://www.w3.org/2000/svg" xmlns:xlink="http://www.w3.org/1999/xlink" xml:space="preserve" xmlns:serif="http://www.serif.com/" style="fill-rule:evenodd;clip-rule:evenodd;stroke-linejoin:round;stroke-miterlimit:2;"><path d="M240,152c1.026,0.454 2.052,0.907 3.109,1.375c12.026,5.616 20.769,14.231 29.891,23.625c0.837,0.779 0.837,0.779 1.691,1.574c1.552,1.691 2.33,3.35 3.309,5.426c1.115,1.922 2.241,3.839 3.375,5.75c3.892,6.651 7.176,12.902 9.625,20.25c0.495,-29.205 0.495,-29.205 1,-59c21.235,-0.023 42.471,-0.041 63.706,-0.052c9.859,-0.005 19.718,-0.012 29.578,-0.024c8.59,-0.01 17.18,-0.016 25.77,-0.019c4.551,-0.001 9.103,-0.004 13.654,-0.012c4.279,-0.007 8.557,-0.009 12.836,-0.007c1.575,-0 3.15,-0.002 4.725,-0.006c2.141,-0.005 4.282,-0.004 6.423,-0.001c1.201,-0.001 2.402,-0.002 3.64,-0.003c2.669,0.123 2.669,0.123 3.669,1.123c0.102,3.029 0.137,6.035 0.131,9.065c0.002,0.968 0.004,1.936 0.006,2.933c0.006,3.287 0.004,6.574 0.003,9.861c0.003,2.363 0.006,4.727 0.009,7.09c0.007,5.843 0.01,11.686 0.01,17.53c0.001,6.996 0.008,13.992 0.014,20.988c0.016,16.926 0.022,33.852 0.027,50.778c0.002,8.017 0.006,16.033 0.01,24.05c0.013,27.466 0.024,54.932 0.027,82.398c0,1.726 0,3.452 0.001,5.178c0,1.73 0,3.46 0.001,5.19c0,3.471 0.001,6.941 0.001,10.412c0,1.291 0,1.291 0,2.608c0.004,27.824 0.019,55.648 0.043,83.473c0.025,29.443 0.038,58.886 0.04,88.33c0,3.242 0,6.484 0.001,9.727c0,0.798 0,1.597 0,2.419c0.001,12.777 0.012,25.554 0.027,38.331c0.014,12.888 0.018,25.777 0.01,38.665c-0.004,6.965 -0.003,13.931 0.011,20.896c0.055,28.505 -0.15,56.73 -3.371,85.078c-0.115,1.027 -0.231,2.055 -0.35,3.113c-2.317,20.117 -7.27,40.419 -15.65,58.887c-0.296,0.686 -0.593,1.372 -0.898,2.079c-5.439,12.533 -11.947,24.711 -21.102,34.921c-1.114,1.274 -1.114,1.274 -2.25,2.574c-2.218,2.507 -4.472,4.973 -6.75,7.426c-0.574,0.628 -1.147,1.256 -1.738,1.902c-13.601,14.315 -32.902,24.436 -51.262,31.098c-1.696,0.742 -1.696,0.742 -3.426,1.5c-3.772,1.583 -7.524,2.807 -11.449,3.938c-0.736,0.213 -1.472,0.426 -2.231,0.646c-31.617,9.014 -62.976,11.282 -95.73,11.232c-3.255,-0.005 -6.51,0.002 -9.765,0.021c-35.944,0.2 -73.054,-0.669 -107.4,-12.336c-0.763,-0.257 -1.525,-0.513 -2.311,-0.777c-23.153,-7.889 -43.033,-19.823 -62.689,-34.223c-0.862,-0.601 -1.725,-1.201 -2.613,-1.82c-0.726,-0.513 -1.451,-1.026 -2.199,-1.555c-0.605,-0.42 -1.209,-0.84 -1.832,-1.273c-1.828,-1.823 -2.254,-2.755 -2.355,-5.352c1.371,-2.742 1.371,-2.742 3.438,-5.875c0.753,-1.168 1.505,-2.337 2.254,-3.508c0.387,-0.6 0.774,-1.199 1.172,-1.817c1.765,-2.797 3.385,-5.67 5.011,-8.55c2.906,-5.136 5.871,-10.233 8.875,-15.312c3.968,-6.732 7.908,-13.481 11.812,-20.25c0.787,-1.353 0.787,-1.353 1.591,-2.733c0.487,-0.847 0.974,-1.695 1.476,-2.568c0.434,-0.751 0.868,-1.501 1.315,-2.275c1.021,-2.041 1.602,-3.883 2.056,-6.112c0.33,0.33 0.66,0.66 1,1c0.373,-0.666 0.746,-1.333 1.13,-2.02c1.691,-3.002 3.405,-5.991 5.12,-8.98c0.88,-1.574 0.88,-1.574 1.777,-3.18c0.574,-0.993 1.147,-1.985 1.738,-3.008c0.524,-0.922 1.047,-1.843 1.587,-2.793c0.544,-0.666 1.087,-1.333 1.647,-2.02c4.36,0 5.841,0.736 9.594,2.781c1.102,0.591 2.204,1.182 3.34,1.791c0.581,0.315 1.162,0.63 1.761,0.954c20.48,11.047 40.641,18.105 63.305,23.474c0.78,0.197 1.56,0.393 2.364,0.596c26.595,6.457 55.888,5.567 79.636,-8.596c3.02,-2.086 5.53,-4.291 8,-7c0.576,-0.619 1.152,-1.237 1.746,-1.875c15.884,-18.679 19.445,-43.125 19.352,-66.785c-0.002,-1.4 -0.003,-2.799 -0.004,-4.199c-0.004,-3.654 -0.014,-7.309 -0.025,-10.963c-0.01,-3.741 -0.015,-7.482 -0.02,-11.223c-0.011,-7.318 -0.028,-14.637 -0.049,-21.955c-0.51,1.069 -1.02,2.137 -1.546,3.239c-7.063,14.597 -7.063,14.597 -12.267,20.199c-0.764,0.852 -0.764,0.852 -1.543,1.721c-19.231,20.969 -45.036,29.472 -72.881,31.021c-33.372,1.322 -65.882,-4.958 -92.208,-26.586c-1.555,-1.594 -1.555,-1.594 -1.555,-3.594c-0.563,-0.231 -1.127,-0.461 -1.707,-0.699c-21.529,-12.213 -33.049,-46.287 -39.418,-68.676c-2.24,-8.234 -3.867,-16.509 -5.188,-24.938c-0.159,-1.012 -0.319,-2.024 -0.483,-3.066c-2.582,-17.764 -2.354,-35.662 -2.35,-53.567c-0.003,-2.689 -0.006,-5.379 -0.01,-8.068c-0.008,-6.511 -0.011,-13.022 -0.012,-19.533c-0,-5.303 -0.003,-10.606 -0.006,-15.909c-0.009,-15.096 -0.013,-30.193 -0.013,-45.289c0,-0.811 0,-1.622 0,-2.457c0,-0.812 0,-1.624 0,-2.461c0,-13.138 -0.009,-26.275 -0.023,-39.413c-0.014,-13.55 -0.021,-27.099 -0.02,-40.649c0,-7.583 -0.002,-15.166 -0.013,-22.748c-0.009,-6.459 -0.011,-12.919 -0.004,-19.378c0.003,-3.282 0.002,-6.564 -0.005,-9.847c-0.064,-29.356 1.546,-58.826 9.252,-87.304c0.198,-0.736 0.396,-1.473 0.601,-2.231c3.128,-11.455 6.775,-22.291 12.399,-32.769c0.339,-0.633 0.678,-1.266 1.027,-1.917c4.985,-9.132 10.603,-16.689 17.973,-24.083c0.84,-0.847 1.681,-1.694 2.547,-2.566c32.599,-32.339 94.59,-41.721 136.453,-22.434Zm-9,123c-3.316,5.318 -4.948,10.846 -6.188,16.938c-0.164,0.747 -0.329,1.494 -0.498,2.264c-1.85,8.681 -2.463,17.211 -2.462,26.077c-0.004,0.997 -0.007,1.995 -0.011,3.022c-0.011,3.322 -0.015,6.645 -0.019,9.967c-0.006,2.391 -0.013,4.782 -0.02,7.173c-0.019,7.163 -0.03,14.326 -0.039,21.489c-0.004,2.707 -0.008,5.415 -0.012,8.122c-0.018,11.968 -0.034,23.936 -0.042,35.904c-0.002,2.924 -0.004,5.847 -0.006,8.771c-0,0.727 -0.001,1.453 -0.001,2.202c-0.008,11.728 -0.034,23.455 -0.066,35.183c-0.033,12.088 -0.051,24.176 -0.054,36.264c-0.002,6.768 -0.011,13.535 -0.036,20.302c-0.024,6.384 -0.027,12.768 -0.017,19.153c0,2.32 -0.006,4.641 -0.02,6.961c-0.606,37.467 -0.606,37.467 15.115,70.022c7.005,5.303 16.911,6.115 25.375,5.188c8.346,-1.814 14.61,-5.601 19.555,-12.617c8.898,-14.669 10.596,-32.018 10.592,-48.817c0.004,-1.002 0.007,-2.004 0.011,-3.036c0.011,-3.331 0.015,-6.662 0.019,-9.994c0.006,-2.399 0.013,-4.798 0.02,-7.197c0.019,-7.177 0.03,-14.355 0.039,-21.532c0.004,-2.709 0.008,-5.419 0.012,-8.128c0.018,-11.965 0.034,-23.93 0.042,-35.895c0.002,-2.921 0.004,-5.842 0.006,-8.762c0.001,-1.089 0.001,-1.089 0.001,-2.2c0.008,-11.751 0.034,-23.502 0.066,-35.254c0.033,-12.096 0.051,-24.192 0.054,-36.288c0.002,-6.779 0.011,-13.558 0.036,-20.337c0.023,-6.381 0.027,-12.762 0.017,-19.143c-0,-2.332 0.006,-4.663 0.02,-6.994c0.097,-17.395 -1.403,-32.073 -9.49,-47.807c-0.338,-0.69 -0.675,-1.379 -1.023,-2.09c-4.045,-7.911 -10.428,-14.061 -18.977,-16.91c-2.909,-0.15 -5.778,-0.231 -8.687,-0.25c-0.778,-0.021 -1.556,-0.041 -2.357,-0.062c-8.349,-0.056 -14.976,2.198 -20.955,8.312Z" style="fill:#fff;fill-opacity:0.15;fill-rule:nonzero;"/><path d="M1140.263,35.873c0.65,-0.002 1.299,-0.003 1.968,-0.005c2.186,-0.004 4.373,-0.001 6.559,0.002c1.564,-0.001 3.127,-0.003 4.691,-0.005c4.254,-0.005 8.508,-0.003 12.762,0c4.445,0.003 8.889,0 13.334,-0.001c7.465,-0.002 14.93,0.001 22.395,0.005c8.64,0.005 17.28,0.004 25.92,-0.002c7.408,-0.005 14.816,-0.005 22.224,-0.003c4.429,0.002 8.858,0.002 13.287,-0.002c4.163,-0.003 8.326,-0.001 12.489,0.005c1.531,0.001 3.062,0.001 4.593,-0.001c2.084,-0.003 4.167,0.001 6.251,0.006c1.168,0 2.336,0.001 3.54,0.001c2.724,0.126 2.724,0.126 4.724,1.126c0.017,73.872 0.033,147.744 0.042,221.616c0,1.092 0,2.185 0,3.31c0.003,23.738 0.006,47.476 0.008,71.214c0.001,11.64 0.003,23.28 0.004,34.921c0,1.158 0,2.317 0,3.51c0.004,37.582 0.012,75.164 0.021,112.746c0.009,38.603 0.016,77.207 0.018,115.81c0,5.446 0.001,10.892 0.001,16.338c0,1.072 0,2.144 0,3.248c0.001,17.291 0.006,34.582 0.012,51.873c0.006,17.361 0.008,34.722 0.007,52.083c-0.001,10.329 0.001,20.658 0.007,30.987c0.004,6.886 0.004,13.772 0.001,20.659c-0.002,3.932 -0.001,7.865 0.003,11.797c0.005,4.221 0.002,8.442 -0.002,12.663c0.003,1.241 0.005,2.481 0.008,3.76c-0.002,1.113 -0.004,2.226 -0.007,3.373c0,0.967 0,1.934 0,2.93c-0.125,2.163 -0.125,2.163 -1.125,3.163c-2.088,0.097 -4.18,0.122 -6.27,0.12c-0.662,0.001 -1.325,0.002 -2.007,0.003c-2.236,0.002 -4.471,-0.004 -6.707,-0.009c-1.596,-0 -3.192,-0 -4.789,0c-4.347,0 -8.694,-0.006 -13.041,-0.013c-4.538,-0.006 -9.075,-0.007 -13.613,-0.008c-8.599,-0.003 -17.198,-0.011 -25.797,-0.021c-9.787,-0.011 -19.574,-0.017 -29.361,-0.022c-20.138,-0.01 -40.277,-0.029 -60.415,-0.05c-0.33,-19.8 -0.66,-39.6 -1,-60c-2.64,5.28 -5.28,10.56 -8,16c-1.768,2.901 -3.474,5.634 -5.438,8.375c-0.462,0.659 -0.925,1.317 -1.401,1.996c-3.991,5.589 -8.379,10.7 -13.161,15.629c-0.558,0.62 -1.116,1.24 -1.691,1.879c-7.335,7.901 -16.286,13.015 -26.184,16.996c-0.694,0.286 -1.388,0.572 -2.103,0.867c-12.64,4.801 -26.259,4.629 -39.585,4.57c-0.835,-0.001 -1.67,-0.003 -2.53,-0.005c-17.059,-0.055 -33.936,-0.704 -49.908,-7.308c-0.622,-0.248 -1.244,-0.495 -1.885,-0.75c-8.771,-3.507 -16.707,-7.289 -24.115,-13.25c-0.775,-0.619 -0.775,-0.619 -1.566,-1.251c-10.184,-8.19 -18.198,-16.811 -25.434,-27.749c-0.516,-0.77 -1.031,-1.539 -1.562,-2.332c-4.541,-7.131 -7.514,-14.779 -10.438,-22.668c-0.36,-0.942 -0.719,-1.885 -1.09,-2.855c-3.627,-10.094 -5.714,-20.666 -7.91,-31.145c-0.238,-1.132 -0.238,-1.132 -0.481,-2.287c-2.115,-10.283 -3.231,-20.593 -4.017,-31.056c-0.248,-3.3 -0.498,-6.6 -0.76,-9.9c-1.568,-19.802 -2.045,-39.461 -2.033,-59.316c0,-4.203 -0.011,-8.405 -0.02,-12.608c-0.016,-8.189 -0.022,-16.378 -0.023,-24.568c-0.001,-6.671 -0.005,-13.342 -0.011,-20.013c-0.018,-19.014 -0.027,-38.027 -0.025,-57.041c0,-1.019 0,-2.039 0,-3.089c0,-1.021 0,-2.041 0,-3.093c0.001,-16.529 -0.018,-33.057 -0.047,-49.586c-0.029,-17.07 -0.043,-34.14 -0.041,-51.21c0.001,-9.544 -0.005,-19.088 -0.026,-28.632c-0.018,-8.125 -0.022,-16.25 -0.009,-24.374c0.006,-4.126 0.007,-8.252 -0.011,-12.378c-0.067,-16.74 0.45,-33.205 2.382,-49.846c0.084,-0.728 0.169,-1.456 0.256,-2.206c1.404,-11.837 3.531,-23.352 6.866,-34.798c0.213,-0.748 0.426,-1.496 0.646,-2.266c2.019,-7.019 4.179,-13.924 7.331,-20.531c1.25,-2.691 2.309,-5.443 3.398,-8.203c1.98,-4.814 4.346,-8.946 7.391,-13.16c1.411,-1.927 1.411,-1.927 2.234,-4.84l2,0c0.236,-0.71 0.472,-1.421 0.715,-2.152c6.188,-13.712 23.923,-25.362 37.434,-30.832c0.941,-0.335 1.882,-0.67 2.852,-1.016c1.209,-0.438 2.418,-0.877 3.664,-1.328c27.63,-9.568 67.064,-9.807 94.336,1.328c0.954,0.335 1.908,0.67 2.891,1.016c11.658,4.333 21.743,11.848 30.109,20.984c1.193,1.178 1.193,1.178 2.41,2.379c6.747,6.828 12.299,14.352 17.18,22.602c0.465,0.666 0.931,1.333 1.41,2.02l2,0c0.103,0.887 0.206,1.774 0.312,2.688c0.595,3.781 0.595,3.781 3.688,8.312c0.495,-86.13 0.495,-86.13 1,-174c2.807,-1.403 5.123,-1.126 8.263,-1.127Zm-67.666,240.576c-13.939,16.04 -13.76,44.3 -13.731,64.259c-0.002,1.198 -0.005,2.397 -0.007,3.631c-0.005,3.282 -0.006,6.563 -0.005,9.845c0,3.557 -0.005,7.114 -0.01,10.672c-0.008,6.954 -0.011,13.909 -0.012,20.863c-0,5.664 -0.003,11.327 -0.006,16.991c-0.009,16.11 -0.013,32.22 -0.013,48.33c0,0.866 0,1.733 0,2.626c0,0.867 0,1.735 0,2.629c0,14.03 -0.009,28.06 -0.023,42.09c-0.014,14.458 -0.021,28.916 -0.02,43.374c0,8.096 -0.002,16.192 -0.013,24.288c-0.009,6.899 -0.011,13.797 -0.004,20.696c0.003,3.507 0.003,7.014 -0.005,10.521c-1.798,47.432 -1.798,47.432 17.307,89.116c8.279,6.899 16.559,7.724 26.986,6.869c7.096,-0.899 12.394,-3.744 16.959,-9.248c0.651,-0.726 1.302,-1.451 1.973,-2.199c13.382,-18.487 10.479,-50.626 10.434,-72.047c-0.005,-3.843 0.008,-7.686 0.018,-11.53c0.017,-7.495 0.018,-14.99 0.013,-22.485c-0.004,-6.099 -0.003,-12.198 0.003,-18.297c0.001,-0.873 0.001,-1.747 0.002,-2.647c0.002,-1.775 0.003,-3.55 0.005,-5.325c0.014,-16.58 0.008,-33.161 -0.003,-49.741c-0.01,-15.123 0.003,-30.245 0.027,-45.367c0.024,-15.589 0.034,-31.179 0.027,-46.768c-0.003,-8.728 -0.001,-17.456 0.016,-26.183c0.015,-7.426 0.015,-14.851 -0.002,-22.277c-0.008,-3.778 -0.011,-7.556 0.005,-11.334c0.062,-16.377 -0.643,-31.84 -4.517,-47.799c-0.337,-1.489 -0.673,-2.979 -1.006,-4.469c-2.2,-9.569 -5.466,-17.988 -13.994,-23.531c-12.277,-6.906 -30.246,-6.047 -40.402,4.449Z" style="fill:#fff;fill-opacity:0.15;fill-rule:nonzero;"/><path d="M490,316c19.801,-0.023 39.602,-0.041 59.403,-0.052c9.193,-0.005 18.387,-0.012 27.58,-0.024c8.01,-0.01 16.02,-0.016 24.03,-0.019c4.244,-0.001 8.488,-0.004 12.732,-0.012c3.99,-0.007 7.98,-0.009 11.969,-0.007c1.469,-0 2.937,-0.002 4.406,-0.006c1.996,-0.005 3.993,-0.003 5.99,-0.001c1.12,-0.001 2.24,-0.002 3.394,-0.003c2.497,0.123 2.497,0.123 3.497,1.123c0.099,1.614 0.128,3.233 0.13,4.851c0.004,1.057 0.007,2.113 0.011,3.202c-0.001,1.175 -0.002,2.35 -0.003,3.561c0.003,1.238 0.006,2.475 0.009,3.75c0.007,3.452 0.009,6.903 0.01,10.355c0.002,3.718 0.009,7.435 0.016,11.153c0.012,6.452 0.02,12.904 0.026,19.356c0.01,10.218 0.031,20.437 0.053,30.655c0.007,3.498 0.015,6.996 0.022,10.493c0.002,0.874 0.004,1.749 0.006,2.65c0.021,9.965 0.04,19.931 0.058,29.896c0.002,0.911 0.003,1.823 0.005,2.761c0.026,14.711 0.045,29.422 0.062,44.134c0.017,15.124 0.046,30.248 0.085,45.373c0.023,9.313 0.037,18.627 0.039,27.94c0.002,6.407 0.015,12.813 0.036,19.22c0.012,3.683 0.019,7.366 0.013,11.049c-1.155,40.366 -1.155,40.366 16.007,75.258c6.648,5.578 15.892,5.603 24.164,5.219c8.457,-0.87 13.554,-3.577 19.25,-9.875c2.009,-3.195 2.009,-3.195 3.688,-6.688c0.872,-1.707 0.872,-1.707 1.762,-3.449c8.261,-18.665 5.856,-43.296 5.853,-63.156c0.002,-3.738 0.015,-7.476 0.027,-11.214c0.019,-6.451 0.031,-12.902 0.038,-19.353c0.01,-9.328 0.032,-18.656 0.057,-27.983c0.04,-15.141 0.073,-30.282 0.1,-45.424c0.002,-0.903 0.003,-1.806 0.005,-2.736c0.002,-0.904 0.003,-1.808 0.005,-2.74c0.023,-12.866 0.047,-25.732 0.074,-38.598c0.002,-0.908 0.004,-1.816 0.006,-2.751c0.032,-15.115 0.067,-30.229 0.105,-45.344c0.023,-9.313 0.042,-18.627 0.056,-27.94c0.009,-6.363 0.022,-12.726 0.038,-19.089c0.009,-3.674 0.016,-7.348 0.019,-11.022c0.003,-3.973 0.014,-7.945 0.025,-11.918c-0,-1.173 -0.001,-2.347 -0.001,-3.556c0.004,-1.055 0.008,-2.11 0.013,-3.197c0.002,-0.918 0.003,-1.836 0.005,-2.781c0.128,-2.062 0.128,-2.062 1.128,-3.062c1.959,-0.099 3.922,-0.126 5.884,-0.127c1.918,-0.004 1.918,-0.004 3.875,-0.009c1.43,0.002 2.861,0.004 4.291,0.006c1.496,-0.001 2.992,-0.003 4.488,-0.005c4.074,-0.005 8.149,-0.003 12.223,0c4.254,0.003 8.509,0 12.763,-0.001c7.146,-0.002 14.292,0.001 21.437,0.005c8.273,0.005 16.547,0.004 24.82,-0.002c7.09,-0.005 14.181,-0.005 21.271,-0.003c4.24,0.002 8.481,0.002 12.721,-0.002c3.986,-0.003 7.971,-0.001 11.957,0.005c1.467,0.001 2.934,0.001 4.401,-0.001c1.994,-0.003 3.989,0.001 5.983,0.006c1.678,0.001 1.678,0.001 3.39,0.001c2.494,0.126 2.494,0.126 3.494,1.126c0.098,1.582 0.126,3.168 0.126,4.752c0.004,1.552 0.004,1.552 0.008,3.135c-0.003,1.726 -0.003,1.726 -0.007,3.487c0.002,1.212 0.003,2.424 0.005,3.672c0.003,3.38 0.002,6.759 -0.001,10.139c-0.002,3.64 0.001,7.28 0.004,10.919c0.004,7.142 0.003,14.284 0.001,21.426c-0.002,5.813 -0.003,11.626 -0.001,17.439c0,0.827 0,1.653 0,2.505c0,1.68 0.001,3.359 0.001,5.039c0.003,15.779 -0,31.558 -0.006,47.337c-0.004,13.507 -0.004,27.014 0.001,40.521c0.005,15.692 0.007,31.384 0.004,47.077c-0,1.679 -0.001,3.359 -0.001,5.038c-0,0.826 -0,1.652 -0,2.503c-0.001,5.789 0.001,11.578 0.003,17.367c0.003,7.081 0.002,14.162 -0.003,21.243c-0.003,3.605 -0.004,7.211 -0,10.816c0.018,20.747 -0.302,41.29 -2.883,61.896c-0.131,1.055 -0.131,1.055 -0.264,2.131c-3.912,31.202 -11.756,62.858 -28.986,89.556c-0.583,0.931 -1.165,1.861 -1.766,2.82c-10.466,16.294 -23.951,31.555 -40.234,42.18c-1.096,0.717 -2.191,1.433 -3.32,2.172c-16.763,10.646 -34.432,17.231 -53.68,21.828c-1.265,0.317 -2.529,0.634 -3.832,0.961c-16.925,3.98 -34.141,4.389 -51.445,4.355c-3.323,-0.003 -6.646,0.02 -9.969,0.046c-23.297,0.07 -45.437,-2.598 -67.754,-9.361c-0.773,-0.231 -1.546,-0.461 -2.342,-0.699c-15.62,-4.763 -30.755,-12.25 -43.658,-22.301c-0.837,-0.636 -1.673,-1.271 -2.535,-1.926c-5.573,-4.329 -10.57,-9.002 -15.465,-14.074c-0.825,-0.784 -1.65,-1.567 -2.5,-2.375c-3.149,-3.306 -5.871,-6.883 -8.633,-10.516c-1.771,-2.356 -1.771,-2.356 -4.867,-3.109c-0.09,-0.691 -0.18,-1.382 -0.273,-2.094c-0.896,-3.582 -2.466,-6.232 -4.352,-9.406c-0.73,-1.253 -1.459,-2.507 -2.188,-3.762c-0.729,-1.246 -1.458,-2.492 -2.188,-3.738c-5.27,-9.013 -9.08,-18.028 -12.312,-27.914c-0.466,-1.415 -0.946,-2.826 -1.438,-4.232c-1.986,-5.73 -3.442,-11.498 -4.75,-17.416c-0.215,-0.967 -0.43,-1.935 -0.652,-2.932c-0.624,-2.834 -1.238,-5.669 -1.848,-8.506c-0.16,-0.732 -0.321,-1.464 -0.486,-2.218c-4.676,-21.604 -4.808,-43.47 -4.746,-65.473c0.009,-3.923 0.006,-7.847 0.004,-11.77c-0.001,-6.771 0.005,-13.542 0.016,-20.312c0.016,-9.789 0.021,-19.578 0.024,-29.367c0.004,-15.888 0.018,-31.777 0.037,-47.665c0.018,-15.419 0.033,-30.838 0.041,-46.257c0.001,-0.953 0.001,-1.906 0.002,-2.888c0.003,-4.782 0.005,-9.564 0.008,-14.346c0.021,-39.568 0.056,-79.136 0.101,-118.704Z" style="fill:#fff;fill-opacity:0.15;fill-rule:nonzero;"/><path d="M495.622,150.877c1.768,0.001 1.768,0.001 3.573,0.003c0.654,-0.001 1.308,-0.002 1.982,-0.003c2.208,-0.002 4.416,0.004 6.624,0.009c1.576,0 3.153,0 4.729,-0c4.293,-0 8.586,0.006 12.88,0.013c4.482,0.006 8.963,0.007 13.445,0.008c8.493,0.003 16.985,0.011 25.478,0.021c11.472,0.013 22.944,0.019 34.416,0.025c18.084,0.009 36.167,0.029 54.251,0.048l0,112l-161,0c-0.021,-18.294 -0.041,-36.589 -0.062,-55.438c-0.009,-5.786 -0.018,-11.572 -0.028,-17.533c-0.005,-7.041 -0.005,-7.041 -0.005,-10.333c-0.002,-2.309 -0.005,-4.618 -0.01,-6.927c-0.007,-3.489 -0.008,-6.977 -0.008,-10.466c-0.004,-1.036 -0.007,-2.073 -0.011,-3.14c0.001,-0.933 0.003,-1.867 0.004,-2.828c-0.001,-0.818 -0.002,-1.635 -0.003,-2.478c0.197,-2.977 0.747,-2.839 3.745,-2.98Z" style="fill:#fff;fill-opacity:0.15;fill-rule:nonzero;"/><path d="M708.606,150.877c1.757,0.001 1.757,0.001 3.55,0.003c0.65,-0.001 1.3,-0.002 1.97,-0.003c2.194,-0.002 4.388,0.004 6.583,0.009c1.567,0 3.133,0 4.7,-0c4.266,-0 8.533,0.006 12.799,0.013c4.454,0.006 8.907,0.007 13.361,0.008c8.44,0.003 16.879,0.011 25.319,0.021c11.4,0.013 22.8,0.019 34.201,0.025c17.971,0.009 35.941,0.029 53.912,0.048l0,112l-160,0c-0.021,-18.294 -0.041,-36.589 -0.062,-55.438c-0.009,-5.786 -0.018,-11.572 -0.028,-17.533c-0.005,-7.041 -0.005,-7.041 -0.005,-10.333c-0.002,-2.309 -0.005,-4.618 -0.01,-6.927c-0.007,-3.489 -0.008,-6.977 -0.008,-10.466c-0.004,-1.036 -0.007,-2.073 -0.011,-3.14c0.001,-0.933 0.003,-1.867 0.004,-2.828c-0.001,-0.818 -0.002,-1.635 -0.003,-2.478c0.197,-2.969 0.74,-2.839 3.729,-2.98Z" style="fill:#fff;fill-opacity:0.15;fill-rule:nonzero;"/><rect x="1296" y="39" width="1" height="771" style="fill:#fff;fill-opacity:0.15;fill-rule:nonzero;"/><rect x="290" y="316" width="1" height="239" style="fill:#fff;fill-opacity:0.15;fill-rule:nonzero;"/><rect x="1133" y="34" width="160" height="1" style="fill:#fff;fill-opacity:0.15;fill-rule:nonzero;"/><rect x="703" y="152" width="1" height="110" style="fill:#fff;fill-opacity:0.15;fill-rule:nonzero;"/><rect x="490" y="152" width="1" height="109" style="fill:#fff;fill-opacity:0.15;fill-rule:nonzero;"/><rect x="866" y="153" width="1" height="108" style="fill:#fff;fill-opacity:0.15;fill-rule:nonzero;"/><rect x="203" y="927" width="65" height="1" style="fill:#fff;fill-opacity:0.15;fill-rule:nonzero;"/><rect x="290" y="681" width="1" height="54" style="fill:#fff;fill-opacity:0.15;fill-rule:nonzero;"/><rect x="290" y="153" width="1" height="52" style="fill:#fff;fill-opacity:0.15;fill-rule:nonzero;"/><rect x="898" y="615" width="1" height="24" style="fill:#fff;fill-opacity:0.15;fill-rule:nonzero;"/><rect x="669" y="821" width="20" height="1" style="fill:#fff;fill-opacity:0.15;fill-rule:nonzero;"/><rect x="898" y="290" width="1" height="16" style="fill:#fff;fill-opacity:0.15;fill-rule:nonzero;"/><rect x="1027" y="821" width="15" height="1" style="fill:#fff;fill-opacity:0.15;fill-rule:nonzero;"/><rect x="899" y="652" width="1" height="10" style="fill:#fff;fill-opacity:0.15;fill-rule:nonzero;"/><rect x="712" y="622" width="1" height="10" style="fill:#fff;fill-opacity:0.15;fill-rule:nonzero;"/><rect x="59" y="290" width="1" height="10" style="fill:#fff;fill-opacity:0.15;fill-rule:nonzero;"/><rect x="171" y="925" width="8" height="1" style="fill:#fff;fill-opacity:0.15;fill-rule:nonzero;"/><rect x="59" y="583" width="1" height="8" style="fill:#fff;fill-opacity:0.15;fill-rule:nonzero;"/><rect x="899" y="275" width="1" height="8" style="fill:#fff;fill-opacity:0.15;fill-rule:nonzero;"/><rect x="161" y="924" width="7" height="1" style="fill:#fff;fill-opacity:0.15;fill-rule:nonzero;"/><rect x="60" y="277" width="1" height="7" style="fill:#fff;fill-opacity:0.15;fill-rule:nonzero;"/><rect x="287" y="925" width="6" height="1" style="fill:#fff;fill-opacity:0.15;fill-rule:nonzero;"/><path d="M408,874l0,3c-0.99,0.495 -0.99,0.495 -2,1c0.66,-1.32 1.32,-2.64 2,-4Z" style="fill:#fff;fill-opacity:0.15;fill-rule:nonzero;"/><rect x="60" y="597" width="1" height="6" style="fill:#fff;fill-opacity:0.15;fill-rule:nonzero;"/><rect x="197" y="927" width="5" height="1" style="fill:#fff;fill-opacity:0.15;fill-rule:nonzero;"/><rect x="452" y="777" width="1" height="5" style="fill:#fff;fill-opacity:0.15;fill-rule:nonzero;"/><rect x="453" y="769" width="1" height="5" style="fill:#fff;fill-opacity:0.15;fill-rule:nonzero;"/><rect x="900" y="669" width="1" height="5" style="fill:#fff;fill-opacity:0.15;fill-rule:nonzero;"/><rect x="490" y="652" width="1" height="5" style="fill:#fff;fill-opacity:0.15;fill-rule:nonzero;"/><path d="M297,924l4,1l-4,-1Z" style="fill:#fff;fill-opacity:0.15;fill-rule:nonzero;"/><path d="M305,923l4,1l-4,-1Z" style="fill:#fff;fill-opacity:0.15;fill-rule:nonzero;"/><path d="M155,923l4,1l-4,-1Z" style="fill:#fff;fill-opacity:0.15;fill-rule:nonzero;"/><path d="M416,865l0,3l0,-3Z" style="fill:#fff;fill-opacity:0.15;fill-rule:nonzero;"/><path d="M444,810l1,4l-1,-4Z" style="fill:#fff;fill-opacity:0.15;fill-rule:nonzero;"/><path d="M1108,790l0,3l0,-3Z" style="fill:#fff;fill-opacity:0.15;fill-rule:nonzero;"/><path d="M838,744l0,3l0,-3Z" style="fill:#fff;fill-opacity:0.15;fill-rule:nonzero;"/><path d="M279,697l0,3l0,-3Z" style="fill:#fff;fill-opacity:0.15;fill-rule:nonzero;"/><path d="M86,678c0.99,0.495 0.99,0.495 2,1c-0.33,0.66 -0.66,1.32 -1,2c-0.33,-0.99 -0.66,-1.98 -1,-3Z" style="fill:#fff;fill-opacity:0.15;fill-rule:nonzero;"/><path d="M865,665l1,4l-1,-4Z" style="fill:#fff;fill-opacity:0.15;fill-rule:nonzero;"/><path d="M1124,292l1,4l-1,-4Z" style="fill:#fff;fill-opacity:0.15;fill-rule:nonzero;"/><path d="M269,927l3,1l-3,-1Z" style="fill:#fff;fill-opacity:0.15;fill-rule:nonzero;"/><path d="M334,916l3,1l-3,-1Z" style="fill:#fff;fill-opacity:0.15;fill-rule:nonzero;"/><path d="M152,799l3,1l-3,-1Z" style="fill:#fff;fill-opacity:0.15;fill-rule:nonzero;"/><path d="M807,781c0.33,0.66 0.66,1.32 1,2c-0.66,-0.33 -1.32,-0.66 -2,-1c0.33,-0.33 0.66,-0.66 1,-1Z" style="fill:#fff;fill-opacity:0.15;fill-rule:nonzero;"/><path d="M248,268l3,1l-3,-1Z" style="fill:#fff;fill-opacity:0.15;fill-rule:nonzero;"/><path d="M1105,172l2,0c-0.33,0.66 -0.66,1.32 -1,2c-0.33,-0.66 -0.66,-1.32 -1,-2Z" style="fill:#fff;fill-opacity:0.15;fill-rule:nonzero;"/><path d="M125,916l2,1l-2,-1Z" style="fill:#fff;fill-opacity:0.15;fill-rule:nonzero;"/><path d="M338,915l2,1l-2,-1Z" style="fill:#fff;fill-opacity:0.15;fill-rule:nonzero;"/><path d="M122,915l2,1l-2,-1Z" style="fill:#fff;fill-opacity:0.15;fill-rule:nonzero;"/><path d="M362,906l2,1l-2,-1Z" style="fill:#fff;fill-opacity:0.15;fill-rule:nonzero;"/><path d="M1012,820l2,1l-2,-1Z" style="fill:#fff;fill-opacity:0.15;fill-rule:nonzero;"/><path d="M1078,813l2,1l-2,-1Z" style="fill:#fff;fill-opacity:0.15;fill-rule:nonzero;"/><path d="M744,813l2,1l-2,-1Z" style="fill:#fff;fill-opacity:0.15;fill-rule:nonzero;"/><path d="M612,813l2,1l-2,-1Z" style="fill:#fff;fill-opacity:0.15;fill-rule:nonzero;"/><path d="M188,808l2,1l-2,-1Z" style="fill:#fff;fill-opacity:0.15;fill-rule:nonzero;"/><path d="M183,807l2,1l-2,-1Z" style="fill:#fff;fill-opacity:0.15;fill-rule:nonzero;"/><path d="M246,806l2,1l-2,-1Z" style="fill:#fff;fill-opacity:0.15;fill-rule:nonzero;"/><path d="M770,804l2,1l-2,-1Z" style="fill:#fff;fill-opacity:0.15;fill-rule:nonzero;"/><path d="M228,729l2,1l-2,-1Z" style="fill:#fff;fill-opacity:0.15;fill-rule:nonzero;"/><path d="M155,729l2,1l-2,-1Z" style="fill:#fff;fill-opacity:0.15;fill-rule:nonzero;"/><path d="M232,728l2,1l-2,-1Z" style="fill:#fff;fill-opacity:0.15;fill-rule:nonzero;"/><path d="M151,728l2,1l-2,-1Z" style="fill:#fff;fill-opacity:0.15;fill-rule:nonzero;"/><path d="M1110,688l2,1l-2,-1Z" style="fill:#fff;fill-opacity:0.15;fill-rule:nonzero;"/><path d="M1080,687l2,1l-2,-1Z" style="fill:#fff;fill-opacity:0.15;fill-rule:nonzero;"/><path d="M1114,686l2,1l-2,-1Z" style="fill:#fff;fill-opacity:0.15;fill-rule:nonzero;"/><path d="M272,603l2,1l-2,-1Z" style="fill:#fff;fill-opacity:0.15;fill-rule:nonzero;"/><path d="M258,268l2,1l-2,-1Z" style="fill:#fff;fill-opacity:0.15;fill-rule:nonzero;"/><path d="M1095,163l2,1l-2,-1Z" style="fill:#fff;fill-opacity:0.15;fill-rule:nonzero;"/><path d="M1081,154l2,1l-2,-1Z" style="fill:#fff;fill-opacity:0.15;fill-rule:nonzero;"/><path d="M1079,153l2,1l-2,-1Z" style="fill:#fff;fill-opacity:0.15;fill-rule:nonzero;"/><path d="M964,153l2,1l-2,-1Z" style="fill:#fff;fill-opacity:0.15;fill-rule:nonzero;"/><path d="M130,153l2,1l-2,-1Z" style="fill:#fff;fill-opacity:0.15;fill-rule:nonzero;"/><path d="M1049,144l2,1l-2,-1Z" style="fill:#fff;fill-opacity:0.15;fill-rule:nonzero;"/><path d="M992,144l2,1l-2,-1Z" style="fill:#fff;fill-opacity:0.15;fill-rule:nonzero;"/></svg>