<?xml version="1.0" encoding="UTF-8"?>
<svg version="1.1" xmlns="http://www.w3.org/2000/svg" width="1344" height="943">
<path d="M0 0 C1.02609375 0.45375 2.0521875 0.9075 3.109375 1.375 C15.13504026 6.99104672 23.87884237 15.60566294 33 25 C33.83724609 25.77923828 33.83724609 25.77923828 34.69140625 26.57421875 C36.24314905 28.26492359 37.02174445 29.92400731 38 32 C39.11503796 33.92247925 40.24104517 35.83861763 41.375 37.75 C45.2669168 44.40105117 48.55063472 50.65190416 51 58 C51.495 28.795 51.495 28.795 52 -1 C73.23529045 -1.02254535 94.47057126 -1.04097819 115.70587063 -1.05181217 C125.56506719 -1.05697555 135.4242558 -1.06401905 145.28344727 -1.07543945 C153.87347817 -1.08538501 162.46350331 -1.09185312 171.05353981 -1.09408849 C175.60481195 -1.09539582 180.15606764 -1.09848305 184.70733452 -1.10573006 C188.98604819 -1.11248825 193.26473853 -1.11461737 197.54345703 -1.11310768 C199.11850677 -1.1133841 200.69355723 -1.11539041 202.26860237 -1.11920547 C204.40964252 -1.1241396 206.55059315 -1.12299935 208.69163513 -1.12025452 C209.89273139 -1.12117631 211.09382765 -1.1220981 212.33132076 -1.12304783 C215 -1 215 -1 216 0 C216.10187647 3.02901893 216.13728012 6.03536769 216.13142776 9.06494617 C216.1334804 10.03288291 216.13553303 11.00081964 216.13764787 11.99808779 C216.14336249 15.28509928 216.14185513 18.57206946 216.14044189 21.85908508 C216.14302308 24.22255111 216.14603554 26.58601669 216.1494453 28.94948167 C216.15669735 34.79269589 216.15921943 40.63590162 216.15977435 46.47911928 C216.1606861 53.47528571 216.16734863 60.47144364 216.17412117 67.46760642 C216.19021386 84.39364457 216.19609087 101.31968185 216.20086992 118.24572628 C216.20320545 126.26243734 216.20680836 134.27914768 216.2105653 142.29585818 C216.22341185 169.76176132 216.23412364 197.22766406 216.2375679 224.69357014 C216.23778953 226.41948484 216.23801132 228.14539954 216.23823325 229.87131424 C216.23845389 231.601365 216.23867437 233.33141576 216.2388947 235.06146652 C216.23933725 238.53210723 216.23978436 242.00274795 216.24023438 245.47338867 C216.24039846 246.76417423 216.24039846 246.76417423 216.24056586 248.08103627 C216.24418639 275.90528088 216.26006263 303.72949927 216.28342474 331.55373386 C216.30810066 360.9969585 216.32174461 390.4401682 216.32293582 419.88340348 C216.32310725 423.12559426 216.32332268 426.36778504 216.32357025 429.60997581 C216.32362602 430.40824621 216.32368179 431.20651661 216.32373925 432.02897703 C216.32488388 444.80610008 216.3358569 457.58319604 216.35045731 470.36030998 C216.36492807 483.248807 216.36800059 496.13726981 216.36001733 509.02577273 C216.35599152 515.99111247 216.35656681 522.95636959 216.37107468 529.92169762 C216.42580258 558.4265374 216.22103833 586.65123425 213 615 C212.88457682 616.02729332 212.76915364 617.05458663 212.65023279 618.11301005 C210.33297301 638.22995451 205.38010121 658.53232388 197 677 C196.70367676 677.68618408 196.40735352 678.37236816 196.10205078 679.0793457 C190.66323625 691.6124427 184.15514838 703.78986382 175 714 C173.88625 715.27423828 173.88625 715.27423828 172.75 716.57421875 C170.53180998 719.08092335 168.27804114 721.54768248 166 724 C165.42636719 724.62777344 164.85273438 725.25554688 164.26171875 725.90234375 C150.66101391 740.21716675 131.35927257 750.33789271 113 757 C111.30423828 757.7425 111.30423828 757.7425 109.57421875 758.5 C105.80213891 760.08303678 102.05018392 761.30706914 98.125 762.4375 C97.38886475 762.65067871 96.65272949 762.86385742 95.89428711 763.08349609 C64.27711077 772.09776918 32.91823963 774.36588433 0.16455078 774.31567383 C-3.09047371 774.31107143 -6.34512191 774.31787081 -9.60009766 774.33618164 C-45.5444713 774.53634573 -82.65383937 773.6668161 -117 762 C-117.7626416 761.74347656 -118.5252832 761.48695313 -119.31103516 761.22265625 C-142.46428735 753.33346985 -162.34398264 741.39946519 -182 727 C-182.86238281 726.39929688 -183.72476563 725.79859375 -184.61328125 725.1796875 C-185.33902344 724.66664063 -186.06476563 724.15359375 -186.8125 723.625 C-187.41707031 723.20476563 -188.02164063 722.78453125 -188.64453125 722.3515625 C-190.47273316 720.52862918 -190.89871349 719.59661768 -191 717 C-189.62890625 714.2578125 -189.62890625 714.2578125 -187.5625 711.125 C-186.80912956 709.95706076 -186.05789094 708.78774413 -185.30859375 707.6171875 C-184.92171387 707.01745117 -184.53483398 706.41771484 -184.13623047 705.79980469 C-182.37073676 703.00323837 -180.75090273 700.12941057 -179.125 697.25 C-176.21874324 692.11410946 -173.25358053 687.01705854 -170.25 681.9375 C-166.28151837 675.20540815 -162.34231098 668.45673374 -158.4375 661.6875 C-157.65004395 660.33483032 -157.65004395 660.33483032 -156.84667969 658.95483398 C-156.35973633 658.10735596 -155.87279297 657.25987793 -155.37109375 656.38671875 C-154.93724365 655.63608154 -154.50339355 654.88544434 -154.05639648 654.11206055 C-153.03542939 652.07083422 -152.45440194 650.22912372 -152 648 C-151.67 648.33 -151.34 648.66 -151 649 C-150.62713867 648.33355469 -150.25427734 647.66710937 -149.87011719 646.98046875 C-148.17885001 643.97797085 -146.46486417 640.98907801 -144.75 638 C-143.87021484 636.42605469 -143.87021484 636.42605469 -142.97265625 634.8203125 C-142.39902344 633.82773437 -141.82539063 632.83515625 -141.234375 631.8125 C-140.71069336 630.89082031 -140.18701172 629.96914063 -139.64746094 629.01953125 C-139.10379883 628.35308594 -138.56013672 627.68664062 -138 627 C-133.64040049 627 -132.15875842 627.73644049 -128.40625 629.78125 C-127.30410156 630.37220459 -126.20195313 630.96315918 -125.06640625 631.57202148 C-124.4852002 631.8869455 -123.90399414 632.20186951 -123.30517578 632.52633667 C-102.82469339 643.57295878 -82.6643304 650.63122951 -60 656 C-59.21979492 656.1966626 -58.43958984 656.3933252 -57.63574219 656.59594727 C-31.04121969 663.05247299 -1.74811307 662.16282883 22 648 C25.01988277 645.9142923 27.53049369 643.70886744 30 641 C30.57621094 640.38125 31.15242187 639.7625 31.74609375 639.125 C47.63013197 620.44622009 51.19124136 596.00029465 51.09765625 572.33984375 C51.09578737 570.94023184 51.09436569 569.54061927 51.09336853 568.14100647 C51.08958036 564.48652284 51.0797824 560.83208 51.06866455 557.1776123 C51.05837016 553.43677319 51.05385384 549.69592737 51.04882812 545.95507812 C51.0381562 538.63670031 51.02112515 531.31835591 51 524 C50.48993408 525.06871338 49.97986816 526.13742676 49.4543457 527.23852539 C42.39126646 541.83525508 42.39126646 541.83525508 37.1875 547.4375 C36.42348877 548.28948975 36.42348877 548.28948975 35.64404297 549.15869141 C16.41279812 570.12795033 -9.39178429 578.63019587 -37.23681641 580.18017578 C-70.60928806 581.50218623 -103.11923422 575.22190859 -129.4453125 553.59375 C-131 552 -131 552 -131 550 C-131.56332031 549.76925781 -132.12664062 549.53851562 -132.70703125 549.30078125 C-154.23638766 537.08736441 -165.75613102 503.01387044 -172.125 480.625 C-174.36484451 472.39100148 -175.99201927 464.11560103 -177.3125 455.6875 C-177.47186035 454.67574707 -177.6312207 453.66399414 -177.79541016 452.62158203 C-180.37697552 434.85802147 -180.14927028 416.95920379 -180.14526367 399.05493164 C-180.14826113 396.36557891 -180.15163762 393.67622892 -180.15544128 390.98687744 C-180.16368755 384.47599229 -180.16649339 377.9651162 -180.16705366 371.45422626 C-180.16753179 366.15117374 -180.1696012 360.84812415 -180.17275429 355.54507256 C-180.18154511 340.44872145 -180.18617624 325.3523774 -180.18542381 310.25602371 C-180.18538386 309.4450686 -180.1853439 308.63411349 -180.18530273 307.79858398 C-180.18526185 306.98661729 -180.18522097 306.1746506 -180.18517885 305.33807885 C-180.18477303 292.20056389 -180.19433072 279.06307768 -180.2084411 265.92557103 C-180.22287697 252.37605658 -180.22970732 238.82655607 -180.22884732 225.27703375 C-180.22851779 217.69422434 -180.23115657 210.11144505 -180.24202538 202.52864265 C-180.25122605 196.06917487 -180.25322864 189.60975086 -180.24651595 183.15027929 C-180.24329789 179.86799852 -180.24415155 176.58581678 -180.2518692 173.30354118 C-180.31634423 143.94750808 -178.70562113 114.47729549 -171 86 C-170.80180664 85.26362305 -170.60361328 84.52724609 -170.39941406 83.76855469 C-167.27111733 72.31326782 -163.62408273 61.47739509 -158 51 C-157.66097656 50.36723145 -157.32195312 49.73446289 -156.97265625 49.08251953 C-151.98791102 39.95066712 -146.36922589 32.3936273 -139 25 C-138.15953125 24.15308594 -137.3190625 23.30617187 -136.453125 22.43359375 C-103.8546165 -9.90537249 -41.86341484 -19.28785605 0 0 Z M-9 123 C-12.31636621 128.3180274 -13.94822899 133.84572479 -15.1875 139.9375 C-15.35185547 140.68451172 -15.51621094 141.43152344 -15.68554688 142.20117188 C-17.53564915 150.88242103 -18.14895446 159.4125214 -18.14717102 168.27767944 C-18.15084771 169.27495642 -18.1545244 170.2722334 -18.1583125 171.2997309 C-18.16927406 174.62218923 -18.17318043 177.9446162 -18.17700195 181.26708984 C-18.18327269 183.65807696 -18.18992002 186.04906311 -18.19691467 188.44004822 C-18.21608598 195.60297078 -18.22673798 202.76589382 -18.23564246 209.92883486 C-18.23915797 212.63608696 -18.24330399 215.34333793 -18.24748212 218.05058908 C-18.26594916 230.01860751 -18.28169012 241.98662599 -18.28938007 253.9546566 C-18.29128945 256.87829973 -18.29320985 259.80194284 -18.29516602 262.72558594 C-18.29564976 263.45209589 -18.2961335 264.17860584 -18.2966319 264.92713125 C-18.30490432 276.65481335 -18.33019514 288.38239254 -18.36274669 300.11002986 C-18.39602027 312.1981898 -18.41384725 324.28629784 -18.41702431 336.37450373 C-18.41917151 343.14206841 -18.42811072 349.90946047 -18.45348549 356.67698288 C-18.47703591 363.06125877 -18.48089282 369.44526816 -18.47072411 375.82957649 C-18.47023499 378.15000999 -18.47636657 380.47045785 -18.49028015 382.79084969 C-19.09586952 420.25787271 -19.09586952 420.25787271 -3.375 452.8125 C3.63010516 458.11559751 13.53620848 458.92788233 22 458 C30.34573363 456.18628151 36.60950515 452.39927541 41.5546875 445.3828125 C50.45250792 430.71343289 52.15054784 413.36433146 52.14717102 396.56600952 C52.15084771 395.56420045 52.1545244 394.56239137 52.1583125 393.53022444 C52.16925802 390.19901797 52.17317749 386.86784278 52.17700195 383.53662109 C52.1832734 381.13749088 52.1899208 378.73836162 52.19691467 376.3392334 C52.21606381 369.16195573 52.22672924 361.98467761 52.23564246 354.80738157 C52.23915747 352.09806114 52.24330336 349.38874185 52.24748212 346.67942237 C52.26593518 334.71442883 52.2816838 322.74943525 52.28938007 310.78442955 C52.29128956 307.86361057 52.29320996 304.9427916 52.29516602 302.02197266 C52.29589163 300.93321378 52.29589163 300.93321378 52.2966319 299.82245977 C52.30492774 288.07124414 52.33026377 276.32013044 52.36274669 264.56895928 C52.39590752 252.47291069 52.41383673 240.37691378 52.41702431 228.28081954 C52.41918048 221.50189029 52.42779775 214.72310995 52.45348549 207.94422531 C52.47685923 201.56325325 52.48096199 195.18254806 52.47072411 188.80154419 C52.47023094 186.47003921 52.47648608 184.13852065 52.49028015 181.80705643 C52.58737536 164.41210538 51.08692299 149.73374132 43 134 C42.66226563 133.31035156 42.32453125 132.62070312 41.9765625 131.91015625 C37.93198099 123.99895482 31.54827535 117.84942512 23 115 C20.09114618 114.85038536 17.22206142 114.76881689 14.3125 114.75 C13.53455078 114.729375 12.75660156 114.70875 11.95507812 114.6875 C3.60604118 114.63179333 -3.02098505 116.88509835 -9 123 Z " fill="#000000" transform="translate(240,152)"/>
<path d="M0 0 C0.64958254 -0.00155999 1.29916509 -0.00311998 1.96843195 -0.00472724 C4.15488072 -0.00873023 6.34126061 -0.00555031 8.52770996 -0.00241089 C10.09124289 -0.00376524 11.6547755 -0.00554536 13.2183075 -0.00772095 C17.47232783 -0.01229125 21.726324 -0.01050737 25.98034477 -0.00734186 C30.42504824 -0.00481619 34.86974958 -0.00715638 39.31445312 -0.00872803 C46.7795855 -0.01054911 54.24470799 -0.008145 61.70983887 -0.00338745 C70.34969516 0.00205505 78.98952785 0.00029235 87.62938356 -0.00521386 C95.03746382 -0.00974671 102.44553695 -0.01039469 109.85361814 -0.00777519 C114.28248704 -0.00621337 118.71134483 -0.00601606 123.14021301 -0.00931168 C127.30323203 -0.01219289 131.46622052 -0.01021006 135.62923622 -0.00441742 C137.16032676 -0.00309117 138.69141985 -0.00348166 140.22250938 -0.00568008 C142.30617091 -0.00839687 144.38973351 -0.00500396 146.47338867 0 C147.64146812 0.00037703 148.80954758 0.00075405 150.01302338 0.0011425 C152.73669434 0.12698364 152.73669434 0.12698364 154.73669434 1.12698364 C154.75382473 74.9989771 154.76972545 148.87097079 154.77903748 222.7429657 C154.77917553 223.83537424 154.77931359 224.92778277 154.77945583 226.0532946 C154.78244837 249.79125564 154.7852186 273.5292167 154.78775967 297.26717779 C154.78900706 308.90737675 154.79030361 320.5475757 154.79162598 332.18777466 C154.79175674 333.34614699 154.79188749 334.50451931 154.79202222 335.69799383 C154.79628758 373.27990717 154.80380188 410.86181901 154.81299156 448.44373144 C154.82241389 487.04700301 154.82857739 525.65027375 154.83060933 564.25354646 C154.8308975 569.69938134 154.83122314 575.14521622 154.83157158 580.5910511 C154.831639 581.6629253 154.83170642 582.7347995 154.83177589 583.83915474 C154.83296004 601.13013535 154.83760463 618.42111341 154.84352637 635.71209297 C154.84939885 653.073086 154.85166603 670.43407648 154.85019571 687.79507046 C154.84943208 698.12394216 154.85148997 708.45280457 154.85749188 718.7816746 C154.86122184 725.66788611 154.86137216 732.55409148 154.85852615 739.4403034 C154.85700599 743.37257915 154.8571232 747.30483724 154.86157752 751.23711114 C154.86632309 755.45824534 154.86346114 759.6793384 154.85974216 763.90047359 C154.86236918 765.1412143 154.86499619 766.381955 154.86770281 767.66029391 C154.86545552 768.77343953 154.86320823 769.88658516 154.86089283 771.03346246 C154.86104881 772.00038635 154.86120479 772.96731024 154.8613655 773.96353486 C154.73669434 776.12698364 154.73669434 776.12698364 153.73669434 777.12698364 C151.64842113 777.22383682 149.55681072 777.24885246 147.46629333 777.24723816 C146.80390343 777.24809258 146.14151352 777.24894701 145.45905119 777.24982733 C143.22336564 777.25148397 140.98775392 777.24595778 138.7520752 777.24050903 C137.15588889 777.24022717 135.55970246 777.24038487 133.96351624 777.24095154 C129.61659539 777.24123957 125.26970189 777.23534199 120.92278743 777.22837758 C116.38505487 777.22214492 111.84732175 777.22154031 107.30958557 777.22035217 C98.71061594 777.2172386 90.11165895 777.20902486 81.5126949 777.19900268 C71.72567705 777.18784236 61.93865862 777.1823313 52.151636 777.17730725 C32.01331348 777.16684226 11.8750083 777.14849646 -8.26330566 777.12698364 C-8.59330566 757.32698364 -8.92330566 737.52698364 -9.26330566 717.12698364 C-11.90330566 722.40698364 -14.54330566 727.68698364 -17.26330566 733.12698364 C-19.03111667 736.02763681 -20.7369549 738.76105616 -22.70080566 741.50198364 C-23.16325684 742.16061401 -23.62570801 742.81924438 -24.10217285 743.49783325 C-28.09323293 749.08655002 -32.4809834 754.19779543 -37.26330566 759.12698364 C-37.82146973 759.74702271 -38.37963379 760.36706177 -38.95471191 761.00588989 C-46.29020456 768.90701088 -55.24021677 774.02124196 -65.13830566 778.00198364 C-65.83222412 778.28815552 -66.52614258 778.57432739 -67.24108887 778.86917114 C-79.88141273 783.66969583 -93.500092 783.49824977 -106.82580566 783.43948364 C-107.66069519 783.43799316 -108.49558472 783.43650269 -109.35577393 783.43496704 C-126.41479436 783.38024488 -143.29159893 782.73087295 -159.26330566 776.12698364 C-159.88543945 775.87932251 -160.50757324 775.63166138 -161.14855957 775.37649536 C-169.91912582 771.86952809 -177.85562657 768.08785041 -185.26330566 762.12698364 C-186.03867676 761.50750854 -186.03867676 761.50750854 -186.82971191 760.8755188 C-197.01325909 752.68556047 -205.02740331 744.06458605 -212.26330566 733.12698364 C-212.77893066 732.35741333 -213.29455566 731.58784302 -213.82580566 730.79495239 C-218.36711587 723.66367622 -221.3393487 716.01583619 -224.26330566 708.12698364 C-224.6229541 707.18467896 -224.98260254 706.24237427 -225.35314941 705.27151489 C-228.98002378 695.17744285 -231.06724252 684.60523257 -233.26330566 674.12698364 C-233.50162109 672.9948645 -233.50162109 672.9948645 -233.74475098 671.83987427 C-235.85953349 661.55716202 -236.97575283 651.24660898 -237.76126671 640.78355885 C-238.00910636 637.48317316 -238.25883611 634.18312379 -238.52150273 630.88388193 C-240.08928927 611.08186238 -240.56643022 591.4230215 -240.5540731 571.56803524 C-240.5536562 567.36538709 -240.56478464 563.16276432 -240.57418823 558.96012878 C-240.59061193 550.77091225 -240.59628911 542.58172453 -240.59741299 534.39249287 C-240.59837197 527.72159524 -240.60252395 521.05070692 -240.60881424 514.37981224 C-240.62637194 495.36621523 -240.63566116 476.35264055 -240.63415329 457.33903537 C-240.63407338 456.31974433 -240.63399347 455.3004533 -240.63391113 454.25027466 C-240.63382937 453.2297054 -240.63374761 452.20913614 -240.63366337 451.15764054 C-240.63285093 434.62884565 -240.65199243 418.10014197 -240.68018787 401.57137344 C-240.70907141 384.50141094 -240.72271987 367.43149271 -240.72100031 350.36150521 C-240.72034196 340.81734769 -240.72558778 331.27328595 -240.74735641 321.72915077 C-240.76577317 313.60429446 -240.76975041 305.4795774 -240.75633757 297.35470901 C-240.74991068 293.22864912 -240.7493055 289.1028547 -240.76704407 284.9768219 C-240.83440592 268.23729573 -240.31726322 251.77132374 -238.38528442 235.1308136 C-238.30088338 234.40280567 -238.21648233 233.67479774 -238.12952368 232.92472897 C-236.72590318 221.08797142 -234.59848104 209.57304315 -231.26330566 198.12698364 C-231.05028809 197.37916626 -230.83727051 196.63134888 -230.61779785 195.86087036 C-228.59924569 188.84188359 -226.43867195 181.93655137 -223.28674316 175.33010864 C-222.03644371 172.63862433 -220.97725832 169.88751329 -219.88830566 167.12698364 C-217.90856185 162.3128861 -215.54222138 158.18053451 -212.49768066 153.96682739 C-211.08643789 152.03962509 -211.08643789 152.03962509 -210.26330566 149.12698364 C-209.60330566 149.12698364 -208.94330566 149.12698364 -208.26330566 149.12698364 C-208.02740723 148.41671021 -207.79150879 147.70643677 -207.54846191 146.97463989 C-201.36012391 133.26248669 -183.62595131 121.61235227 -170.11486816 116.14260864 C-169.17385254 115.80745239 -168.23283691 115.47229614 -167.26330566 115.12698364 C-166.05416504 114.68870239 -164.84502441 114.25042114 -163.59924316 113.79885864 C-135.96960926 104.23095136 -96.53525763 103.99228136 -69.26330566 115.12698364 C-68.30939941 115.46213989 -67.35549316 115.79729614 -66.37268066 116.14260864 C-54.71510545 120.47605283 -44.6291847 127.99084465 -36.26330566 137.12698364 C-35.07027832 138.30454224 -35.07027832 138.30454224 -33.85314941 139.50588989 C-27.10639214 146.334056 -21.55389639 153.85801822 -16.67346191 162.10745239 C-16.20811035 162.77389771 -15.74275879 163.44034302 -15.26330566 164.12698364 C-14.60330566 164.12698364 -13.94330566 164.12698364 -13.26330566 164.12698364 C-13.16018066 165.01385864 -13.05705566 165.90073364 -12.95080566 166.81448364 C-12.35591253 170.59503443 -12.35591253 170.59503443 -9.26330566 175.12698364 C-8.76830566 88.99698364 -8.76830566 88.99698364 -8.26330566 1.12698364 C-5.45663258 -0.2763529 -3.14077364 0.00101376 0 0 Z M-67.66564941 240.57620239 C-81.60477783 256.61630089 -81.42539238 284.8761777 -81.39701843 304.83493042 C-81.39928399 306.0331956 -81.40154955 307.23146079 -81.40388376 308.46603703 C-81.40906826 311.74768515 -81.40987742 315.02929825 -81.40868938 318.31094909 C-81.40848338 321.86815633 -81.41402315 325.42535572 -81.41874695 328.9825592 C-81.42701275 335.93702434 -81.42979998 342.89148099 -81.43035933 349.84595063 C-81.43083666 355.5094868 -81.43290222 361.17302019 -81.43605995 366.83655548 C-81.44485735 382.94670646 -81.44948105 399.0568508 -81.44872948 415.1670042 C-81.44868952 416.03342144 -81.44864957 416.89983868 -81.4486084 417.79251099 C-81.44856752 418.66000525 -81.44852664 419.52749952 -81.44848452 420.42128149 C-81.44807886 434.45136704 -81.45763054 448.48142565 -81.47174677 462.51150343 C-81.48617684 476.96945275 -81.49301325 491.427389 -81.49215299 505.8853457 C-81.49182318 513.98128158 -81.49447416 522.07718926 -81.50533104 530.17311859 C-81.51452408 537.07183187 -81.51654046 543.97050419 -81.50982162 550.869221 C-81.5065994 554.37627945 -81.5063395 557.88325972 -81.51517487 561.39031029 C-83.31330834 608.82275441 -83.31330834 608.82275441 -64.20861816 650.50588989 C-55.9294265 657.40521628 -47.64947825 658.23034826 -37.22229004 657.37503052 C-30.12582628 656.47647529 -24.82791582 653.63136647 -20.26330566 648.12698364 C-19.6123291 647.40124146 -18.96135254 646.67549927 -18.29064941 645.92776489 C-4.90872371 627.44059586 -7.8111499 595.30168203 -7.85647261 573.88064361 C-7.86127963 570.03737203 -7.8486295 566.19414686 -7.8384552 562.35089111 C-7.82140928 554.85588215 -7.82039694 547.36095752 -7.8256681 539.86593424 C-7.82973625 533.76682685 -7.82823519 527.66774409 -7.82291985 521.56863785 C-7.82217142 520.69525242 -7.821423 519.821867 -7.8206519 518.92201535 C-7.81912019 517.14688498 -7.81758184 515.37175462 -7.81603693 513.59662427 C-7.80236445 497.01620798 -7.80771342 480.43583911 -7.81922214 463.85542394 C-7.8291587 448.73288756 -7.81619717 433.61047345 -7.79228795 418.48795591 C-7.76782922 402.89859262 -7.75830507 387.30928613 -7.76494068 371.71990407 C-7.76841665 362.99210558 -7.76630845 354.2644011 -7.74868965 345.53661728 C-7.73388291 338.11092893 -7.73344227 330.68540091 -7.75076056 323.25971542 C-7.75920207 319.4817565 -7.76159083 315.70408295 -7.74610901 311.92613983 C-7.68378324 295.54906309 -8.38898895 280.08599894 -12.26330566 264.12698364 C-12.60061322 262.63790539 -12.93588041 261.14836319 -13.26891422 259.65832329 C-15.46903648 250.08909 -18.73456988 241.67066191 -27.26330566 236.12698364 C-39.54063717 229.22098467 -57.50911963 230.08017858 -67.66564941 240.57620239 Z " fill="#000000" transform="translate(1140.2633056640625,35.873016357421875)"/>
<path d="M0 0 C19.80106561 -0.02332748 39.60212844 -0.04097843 59.40320492 -0.05181217 C68.59652604 -0.05697545 77.78983864 -0.06401875 86.9831543 -0.07543945 C94.99307036 -0.08538532 103.00298025 -0.09185319 111.01290232 -0.09408849 C115.25677253 -0.09539577 119.5006251 -0.09848266 123.74448967 -0.10573006 C127.7342907 -0.11248874 131.7240667 -0.11461727 135.71387291 -0.11310768 C137.18249395 -0.11338408 138.65111579 -0.1153901 140.1197319 -0.11920547 C142.11622776 -0.12414028 144.11273687 -0.12239813 146.10923767 -0.12025452 C147.22921615 -0.12117631 148.34919462 -0.1220981 149.50311184 -0.12304783 C152 0 152 0 153 1 C153.09940616 2.61437257 153.12846967 4.23311196 153.13028526 5.85054111 C153.13390961 6.90713383 153.13753396 7.96372655 153.14126813 9.05233723 C153.14019988 10.22757464 153.13913163 11.40281205 153.13803101 12.61366272 C153.14085229 13.85123414 153.14367357 15.08880556 153.14658034 16.36387914 C153.15350355 19.81558269 153.15595443 23.26723921 153.15663147 26.71894634 C153.15846604 30.43653846 153.16607079 34.15411883 153.17311096 37.8717041 C153.18465943 44.32357194 153.19289261 50.77543715 153.19923019 57.22731209 C153.20955613 67.44570257 153.23012465 77.66406049 153.25234985 87.88243103 C153.259831 91.38025368 153.26724472 94.87807647 153.27463722 98.37589931 C153.27648779 99.25030417 153.27833835 100.12470903 153.280245 101.025611 C153.30119338 110.99094776 153.32000583 120.95628817 153.33789062 130.92163086 C153.33952881 131.83288864 153.34116699 132.74414643 153.34285481 133.68301808 C153.36904355 148.39424967 153.38773707 163.10548375 153.40448253 177.81672866 C153.42197484 192.94099131 153.45090395 208.06520542 153.4893719 223.18942922 C153.51264066 232.50285568 153.52675457 241.81620288 153.52869953 251.12965863 C153.53082793 257.53634559 153.54391373 263.94295432 153.56517886 270.34960604 C153.57706994 274.03254153 153.58445374 277.71532191 153.57846642 281.39827538 C152.42393124 321.76407118 152.42393124 321.76407118 169.5859375 356.65625 C176.23435227 362.23443215 185.47838179 362.25883379 193.75 361.875 C202.20735322 361.0049852 207.30431095 358.29803253 213 352 C215.00871686 348.80490049 215.00871686 348.80490049 216.6875 345.3125 C217.55955078 343.60513672 217.55955078 343.60513672 218.44921875 341.86328125 C226.71002981 323.19789905 224.30493813 298.56688194 224.30201519 278.70712614 C224.3036783 274.96918084 224.31685202 271.23127209 224.32855225 267.49334717 C224.34726623 261.0423268 224.35907821 254.59132495 224.36609077 248.14028168 C224.3763285 238.81247615 224.39843292 229.48472656 224.42347669 220.15695038 C224.46390539 205.01577819 224.49644161 189.87460063 224.52319336 174.73339844 C224.52479066 173.83040816 224.52638796 172.92741788 224.52803367 171.99706426 C224.52963257 171.09286547 224.53123147 170.18866668 224.53287882 169.25706792 C224.55564491 156.39110073 224.58027982 143.52513893 224.60717773 130.65917969 C224.60907388 129.75124164 224.61097003 128.84330359 224.61292363 127.90785226 C224.64465108 112.79325836 224.68038309 97.6786755 224.71821922 82.56409574 C224.74127559 73.25083026 224.76022358 63.93757232 224.77388596 54.62428823 C224.78338229 48.26144003 224.79620557 41.89860455 224.81169481 35.53576812 C224.82049252 31.86166287 224.82757589 28.18757341 224.83033562 24.51345825 C224.83333737 20.54091559 224.84390089 16.56841434 224.85523987 12.59588623 C224.85485374 11.42249341 224.8544676 10.24910058 224.85406977 9.0401504 C224.85831082 7.98519099 224.86255186 6.93023157 224.86692142 5.84330368 C224.86849532 4.92551156 224.87006922 4.00771944 224.87169081 3.06211543 C225 1 225 1 226 0 C227.9593087 -0.09885817 229.92223223 -0.12632246 231.8840332 -0.12698364 C233.80235458 -0.13121338 233.80235458 -0.13121338 235.75942993 -0.13552856 C237.18988051 -0.13358397 238.62033095 -0.13153578 240.05078125 -0.12939453 C241.54682457 -0.13074852 243.04286756 -0.13252843 244.53890991 -0.13470459 C248.61317633 -0.13927925 252.68741754 -0.13748923 256.76168442 -0.1343255 C261.01600973 -0.13180207 265.27033281 -0.13413939 269.5246582 -0.13571167 C276.67041412 -0.13753342 283.81615971 -0.13512693 290.96191406 -0.13037109 C299.23538572 -0.12492846 307.50883275 -0.12669112 315.78230381 -0.1321975 C322.87272891 -0.13672849 329.96314657 -0.13737925 337.05357265 -0.13475883 C341.29407086 -0.13319598 345.53455746 -0.13300251 349.77505493 -0.13629532 C353.76077051 -0.13917383 357.74645418 -0.13719871 361.73216629 -0.13140106 C363.1991737 -0.13007336 364.66618378 -0.13046776 366.13319016 -0.13266373 C368.12744809 -0.13537478 370.12171187 -0.13138081 372.1159668 -0.12698364 C373.79398628 -0.1264181 373.79398628 -0.1264181 375.50590515 -0.12584114 C378 0 378 0 379 1 C379.09791591 2.58165825 379.12555531 4.1677066 379.12584114 5.75239277 C379.12975276 7.30440639 379.12975276 7.30440639 379.13374341 8.88777381 C379.13039732 10.61386769 379.13039732 10.61386769 379.12698364 12.37483215 C379.12854363 13.58664097 379.13010362 14.79844979 379.13171089 16.04698008 C379.13502455 19.42660003 379.1338113 22.80616492 379.13072467 26.1857816 C379.12847223 29.82558267 379.13194971 33.46537874 379.13470459 37.10517883 C379.13916551 44.24724323 379.13818366 51.38929716 379.13529195 58.53136197 C379.13303582 64.34447848 379.13272632 70.15759203 379.13381577 75.97070885 C379.133969 76.79740727 379.13412223 77.62410569 379.13428011 78.47585559 C379.13459984 80.15539943 379.13492405 81.83494327 379.1352527 83.51448711 C379.13810929 99.29358173 379.13481943 115.07267056 379.12945233 130.85176422 C379.12499983 144.35861723 379.125747 157.86546161 379.13037109 171.37231445 C379.13574087 187.06454904 379.13781804 202.75677851 379.13475883 218.44901389 C379.1344403 220.12827313 379.13412593 221.80753237 379.13381577 223.48679161 C379.13366149 224.31291546 379.13350721 225.13903931 379.13334826 225.99019722 C379.13248913 231.77919516 379.13393327 237.56818983 379.13629532 243.35718727 C379.13912095 250.43826995 379.1382981 257.51934158 379.13301457 264.60042302 C379.13041203 268.20586324 379.1293127 271.81128513 379.13266373 275.41672516 C379.1502949 296.16409289 378.83066455 316.70646884 376.25 337.3125 C376.11928604 338.36742645 376.11928604 338.36742645 375.9859314 339.44366455 C372.07413289 370.64598963 364.22992858 402.30214036 347 429 C346.41734375 429.93070313 345.8346875 430.86140625 345.234375 431.8203125 C334.76850264 448.1147398 321.28290997 463.37507731 305 474 C303.90429688 474.71671875 302.80859375 475.4334375 301.6796875 476.171875 C284.91688354 486.81814675 267.24790922 493.40290388 248 498 C246.73542969 498.31710937 245.47085938 498.63421875 244.16796875 498.9609375 C227.24295124 502.94097654 210.02707586 503.34979141 192.72314453 503.31567383 C189.39972775 503.31252344 186.07721337 503.33604369 182.75390625 503.36132812 C159.45715494 503.4313203 137.31647833 500.76346642 115 494 C114.22720703 493.76941895 113.45441406 493.53883789 112.65820312 493.30126953 C97.03814794 488.53846705 81.90273286 481.05079191 69 471 C68.16339844 470.36449219 67.32679688 469.72898437 66.46484375 469.07421875 C60.89198955 464.74538027 55.89534018 460.07214705 51 455 C50.175 454.21625 49.35 453.4325 48.5 452.625 C45.35122172 449.31878281 42.62916679 445.74186138 39.8671875 442.109375 C38.09608377 439.7538281 38.09608377 439.7538281 35 439 C34.90976562 438.3090625 34.81953125 437.618125 34.7265625 436.90625 C33.83093968 433.32375871 32.26077252 430.67450509 30.375 427.5 C29.64492026 426.24662516 28.9157724 424.9927071 28.1875 423.73828125 C27.45870161 422.49197207 26.72954866 421.24587014 26 420 C20.73041333 410.98681113 16.9200073 401.97232634 13.6875 392.08569336 C13.22110521 390.67077478 12.74146639 389.26016635 12.25 387.85375977 C10.26438306 382.12421649 8.80757819 376.3558467 7.5 370.4375 C7.28496826 369.47005859 7.06993652 368.50261719 6.84838867 367.50585938 C6.22425158 364.67224413 5.61039515 361.83660306 5 359 C4.83967285 358.26797363 4.6793457 357.53594727 4.51416016 356.78173828 C-0.16167041 335.17781605 -0.29404605 313.31187105 -0.23213124 291.30825663 C-0.22336063 287.38495355 -0.22642635 283.46165548 -0.22793579 279.53834534 C-0.22897618 272.76756311 -0.22278906 265.99681992 -0.21146011 259.22604752 C-0.19509189 249.43707949 -0.18998563 239.64813002 -0.18748413 229.8591498 C-0.18312462 213.97086786 -0.16986328 198.08260665 -0.15087891 182.19433594 C-0.13247466 166.77539167 -0.1183405 151.35645306 -0.10986328 135.9375 C-0.10933783 134.98445434 -0.10881239 134.03140867 -0.10827102 133.04948284 C-0.10566063 128.26754996 -0.10313329 123.48561704 -0.10064721 118.70368409 C-0.07996913 79.1357749 -0.04479162 39.56788883 0 0 Z " fill="#000000" transform="translate(490,316)"/>
<path d="M0 0 C1.76845984 0.00138269 1.76845984 0.00138269 3.57264614 0.00279331 C4.22686894 0.00193889 4.88109175 0.00108446 5.55513948 0.00020415 C7.7631863 -0.00145245 9.97115836 0.00407361 12.17919827 0.00952244 C13.75568038 0.0098043 15.33216263 0.0096466 16.90864468 0.00907993 C21.20184837 0.00879191 25.49502437 0.01468943 29.7882216 0.02165389 C34.26989971 0.02788661 38.75157838 0.02849116 43.23326015 0.0296793 C51.72598196 0.03279286 60.21869097 0.04100657 68.71140712 0.05102879 C80.18336463 0.06427419 91.6553256 0.06968964 103.12728882 0.07553101 C121.21092644 0.08494645 139.29453703 0.1048652 157.37817287 0.12304783 C157.37817287 37.08304783 157.37817287 74.04304783 157.37817287 112.12304783 C104.24817287 112.12304783 51.11817287 112.12304783 -3.62182713 112.12304783 C-3.64245213 93.82867283 -3.66307713 75.53429783 -3.68432713 56.68554783 C-3.69343113 50.89967136 -3.70253513 45.1137949 -3.71191502 39.15258884 C-3.71643162 32.11120701 -3.71643162 32.11120701 -3.71727085 28.8194437 C-3.71881087 26.51031903 -3.72233697 24.20119517 -3.72740269 21.89207554 C-3.73467645 18.40337816 -3.73573467 14.91473012 -3.73535252 11.42602634 C-3.73895062 10.38973622 -3.74254873 9.3534461 -3.74625587 8.28575325 C-3.74487838 7.35236091 -3.74350088 6.41896856 -3.74208164 5.4572916 C-3.74300344 4.63966123 -3.74392523 3.82203085 -3.74487495 2.97962379 C-3.54756193 0.00251629 -2.99820315 0.14071194 0 0 Z " fill="#000000" transform="translate(495.6218271255493,150.87695217132568)"/>
<path d="M0 0 C1.75739832 0.00138269 1.75739832 0.00138269 3.55029964 0.00279331 C4.20043889 0.00193889 4.85057814 0.00108446 5.52041858 0.00020415 C7.71464604 -0.00145243 9.90879826 0.00407358 12.10301876 0.00952244 C13.66964879 0.0098043 15.23627895 0.0096466 16.8029089 0.00907993 C21.06925401 0.00879191 25.33557126 0.0146894 29.60190988 0.02165389 C34.05556076 0.02788665 38.50921221 0.02849116 42.96286678 0.0296793 C51.40246468 0.03279285 59.84204969 0.04100655 68.2816419 0.05102879 C79.68184858 0.06427423 91.08205876 0.06968964 102.48227119 0.07553101 C120.45278721 0.08494643 138.42327602 0.10486518 156.39379025 0.12304783 C156.39379025 37.08304783 156.39379025 74.04304783 156.39379025 112.12304783 C103.59379025 112.12304783 50.79379025 112.12304783 -3.60620975 112.12304783 C-3.62683475 93.82867283 -3.64745975 75.53429783 -3.66870975 56.68554783 C-3.67781376 50.89967136 -3.68691776 45.1137949 -3.69629765 39.15258884 C-3.70081425 32.11120701 -3.70081425 32.11120701 -3.70165348 28.8194437 C-3.7031935 26.51031903 -3.7067196 24.20119517 -3.71178532 21.89207554 C-3.71905908 18.40337816 -3.7201173 14.91473012 -3.71973515 11.42602634 C-3.72333325 10.38973622 -3.72693136 9.3534461 -3.7306385 8.28575325 C-3.72926101 7.35236091 -3.72788351 6.41896856 -3.72646427 5.4572916 C-3.72738606 4.63966123 -3.72830786 3.82203085 -3.72925758 2.97962379 C-3.53248766 0.01071064 -2.98880229 0.14111129 0 0 Z " fill="#000000" transform="translate(708.6062097549438,150.87695217132568)"/>
<path d="M0 0 C0.33 0 0.66 0 1 0 C1 254.43 1 508.86 1 771 C0.67 771 0.34 771 0 771 C0 516.57 0 262.14 0 0 Z " fill="#000000" transform="translate(1296,39)"/>
<path d="M0 0 C0.33 0 0.66 0 1 0 C1 78.87 1 157.74 1 239 C0.67 239 0.34 239 0 239 C0 160.13 0 81.26 0 0 Z " fill="#000000" transform="translate(290,316)"/>
<path d="M0 0 C52.8 0 105.6 0 160 0 C160 0.33 160 0.66 160 1 C107.2 1 54.4 1 0 1 C0 0.67 0 0.34 0 0 Z " fill="#000000" transform="translate(1133,34)"/>
<path d="M0 0 C0.33 0 0.66 0 1 0 C1 36.3 1 72.6 1 110 C0.67 110 0.34 110 0 110 C0 73.7 0 37.4 0 0 Z " fill="#000000" transform="translate(703,152)"/>
<path d="M0 0 C0.33 0 0.66 0 1 0 C1 35.97 1 71.94 1 109 C0.67 109 0.34 109 0 109 C0 73.03 0 37.06 0 0 Z " fill="#000000" transform="translate(490,152)"/>
<path d="M0 0 C0.33 0 0.66 0 1 0 C1 35.64 1 71.28 1 108 C0.67 108 0.34 108 0 108 C0 72.36 0 36.72 0 0 Z " fill="#000000" transform="translate(866,153)"/>
<path d="M0 0 C21.45 0 42.9 0 65 0 C65 0.33 65 0.66 65 1 C43.55 1 22.1 1 0 1 C0 0.67 0 0.34 0 0 Z " fill="#000000" transform="translate(203,927)"/>
<path d="M0 0 C0.33 0 0.66 0 1 0 C1 17.82 1 35.64 1 54 C0.67 54 0.34 54 0 54 C0 36.18 0 18.36 0 0 Z " fill="#000000" transform="translate(290,681)"/>
<path d="M0 0 C0.33 0 0.66 0 1 0 C1 17.16 1 34.32 1 52 C0.67 52 0.34 52 0 52 C0 34.84 0 17.68 0 0 Z " fill="#000000" transform="translate(290,153)"/>
<path d="M0 0 C0.33 0 0.66 0 1 0 C1 7.92 1 15.84 1 24 C0.67 24 0.34 24 0 24 C0 16.08 0 8.16 0 0 Z " fill="#000000" transform="translate(898,615)"/>
<path d="M0 0 C6.6 0 13.2 0 20 0 C20 0.33 20 0.66 20 1 C13.4 1 6.8 1 0 1 C0 0.67 0 0.34 0 0 Z " fill="#000000" transform="translate(669,821)"/>
<path d="M0 0 C0.33 0 0.66 0 1 0 C1 5.28 1 10.56 1 16 C0.67 16 0.34 16 0 16 C0 10.72 0 5.44 0 0 Z " fill="#000000" transform="translate(898,290)"/>
<path d="M0 0 C4.95 0 9.9 0 15 0 C15 0.33 15 0.66 15 1 C10.05 1 5.1 1 0 1 C0 0.67 0 0.34 0 0 Z " fill="#000000" transform="translate(1027,821)"/>
<path d="M0 0 C0.33 0 0.66 0 1 0 C1 3.3 1 6.6 1 10 C0.67 10 0.34 10 0 10 C0 6.7 0 3.4 0 0 Z " fill="#000000" transform="translate(899,652)"/>
<path d="M0 0 C0.33 0 0.66 0 1 0 C1 3.3 1 6.6 1 10 C0.67 10 0.34 10 0 10 C0 6.7 0 3.4 0 0 Z " fill="#000000" transform="translate(712,622)"/>
<path d="M0 0 C0.33 0 0.66 0 1 0 C1 3.3 1 6.6 1 10 C0.67 10 0.34 10 0 10 C0 6.7 0 3.4 0 0 Z " fill="#000000" transform="translate(59,290)"/>
<path d="M0 0 C2.64 0 5.28 0 8 0 C8 0.33 8 0.66 8 1 C5.36 1 2.72 1 0 1 C0 0.67 0 0.34 0 0 Z " fill="#000000" transform="translate(171,925)"/>
<path d="M0 0 C0.33 0 0.66 0 1 0 C1 2.64 1 5.28 1 8 C0.67 8 0.34 8 0 8 C0 5.36 0 2.72 0 0 Z " fill="#000000" transform="translate(59,583)"/>
<path d="M0 0 C0.33 0 0.66 0 1 0 C1 2.64 1 5.28 1 8 C0.67 8 0.34 8 0 8 C0 5.36 0 2.72 0 0 Z " fill="#000000" transform="translate(899,275)"/>
<path d="M0 0 C2.31 0 4.62 0 7 0 C7 0.33 7 0.66 7 1 C4.69 1 2.38 1 0 1 C0 0.67 0 0.34 0 0 Z " fill="#000000" transform="translate(161,924)"/>
<path d="M0 0 C0.33 0 0.66 0 1 0 C1 2.31 1 4.62 1 7 C0.67 7 0.34 7 0 7 C0 4.69 0 2.38 0 0 Z " fill="#000000" transform="translate(60,277)"/>
<path d="M0 0 C1.98 0 3.96 0 6 0 C6 0.33 6 0.66 6 1 C4.02 1 2.04 1 0 1 C0 0.67 0 0.34 0 0 Z " fill="#000000" transform="translate(287,925)"/>
<path d="M0 0 C0 0.99 0 1.98 0 3 C-0.99 3.495 -0.99 3.495 -2 4 C-1.34 2.68 -0.68 1.36 0 0 Z " fill="#000000" transform="translate(408,874)"/>
<path d="M0 0 C0.33 0 0.66 0 1 0 C1 1.98 1 3.96 1 6 C0.67 6 0.34 6 0 6 C0 4.02 0 2.04 0 0 Z " fill="#000000" transform="translate(60,597)"/>
<path d="M0 0 C1.65 0 3.3 0 5 0 C5 0.33 5 0.66 5 1 C3.35 1 1.7 1 0 1 C0 0.67 0 0.34 0 0 Z " fill="#000000" transform="translate(197,927)"/>
<path d="M0 0 C0.33 0 0.66 0 1 0 C1 1.65 1 3.3 1 5 C0.67 5 0.34 5 0 5 C0 3.35 0 1.7 0 0 Z " fill="#000000" transform="translate(452,777)"/>
<path d="M0 0 C0.33 0 0.66 0 1 0 C1 1.65 1 3.3 1 5 C0.67 5 0.34 5 0 5 C0 3.35 0 1.7 0 0 Z " fill="#000000" transform="translate(453,769)"/>
<path d="M0 0 C0.33 0 0.66 0 1 0 C1 1.65 1 3.3 1 5 C0.67 5 0.34 5 0 5 C0 3.35 0 1.7 0 0 Z " fill="#000000" transform="translate(900,669)"/>
<path d="M0 0 C0.33 0 0.66 0 1 0 C1 1.65 1 3.3 1 5 C0.67 5 0.34 5 0 5 C0 3.35 0 1.7 0 0 Z " fill="#000000" transform="translate(490,652)"/>
<path d="M0 0 C4 1 4 1 4 1 Z " fill="#000000" transform="translate(297,924)"/>
<path d="M0 0 C4 1 4 1 4 1 Z " fill="#000000" transform="translate(305,923)"/>
<path d="M0 0 C4 1 4 1 4 1 Z " fill="#000000" transform="translate(155,923)"/>
<path d="M0 0 C0 3 0 3 0 3 Z " fill="#000000" transform="translate(416,865)"/>
<path d="M0 0 C1 4 1 4 1 4 Z " fill="#000000" transform="translate(444,810)"/>
<path d="M0 0 C0 3 0 3 0 3 Z " fill="#000000" transform="translate(1108,790)"/>
<path d="M0 0 C0 3 0 3 0 3 Z " fill="#000000" transform="translate(838,744)"/>
<path d="M0 0 C0 3 0 3 0 3 Z " fill="#000000" transform="translate(279,697)"/>
<path d="M0 0 C0.99 0.495 0.99 0.495 2 1 C1.67 1.66 1.34 2.32 1 3 C0.67 2.01 0.34 1.02 0 0 Z " fill="#000000" transform="translate(86,678)"/>
<path d="M0 0 C1 4 1 4 1 4 Z " fill="#000000" transform="translate(865,665)"/>
<path d="M0 0 C1 4 1 4 1 4 Z " fill="#000000" transform="translate(1124,292)"/>
<path d="M0 0 C3 1 3 1 3 1 Z " fill="#000000" transform="translate(269,927)"/>
<path d="M0 0 C3 1 3 1 3 1 Z " fill="#000000" transform="translate(334,916)"/>
<path d="M0 0 C3 1 3 1 3 1 Z " fill="#000000" transform="translate(152,799)"/>
<path d="M0 0 C0.33 0.66 0.66 1.32 1 2 C0.34 1.67 -0.32 1.34 -1 1 C-0.67 0.67 -0.34 0.34 0 0 Z " fill="#000000" transform="translate(807,781)"/>
<path d="" fill="#000000" transform="translate(0,0)"/>
<path d="" fill="#000000" transform="translate(0,0)"/>
<path d="" fill="#000000" transform="translate(0,0)"/>
<path d="" fill="#000000" transform="translate(0,0)"/>
<path d="" fill="#000000" transform="translate(0,0)"/>
<path d="" fill="#000000" transform="translate(0,0)"/>
<path d="" fill="#000000" transform="translate(0,0)"/>
<path d="" fill="#000000" transform="translate(0,0)"/>
<path d="" fill="#000000" transform="translate(0,0)"/>
<path d="" fill="#000000" transform="translate(0,0)"/>
<path d="M0 0 C3 1 3 1 3 1 Z " fill="#000000" transform="translate(248,268)"/>
<path d="" fill="#000000" transform="translate(0,0)"/>
<path d="M0 0 C0.66 0 1.32 0 2 0 C1.67 0.66 1.34 1.32 1 2 C0.67 1.34 0.34 0.68 0 0 Z " fill="#000000" transform="translate(1105,172)"/>
<path d="M0 0 C2 1 2 1 2 1 Z " fill="#000000" transform="translate(125,916)"/>
<path d="M0 0 C2 1 2 1 2 1 Z " fill="#000000" transform="translate(338,915)"/>
<path d="M0 0 C2 1 2 1 2 1 Z " fill="#000000" transform="translate(122,915)"/>
<path d="M0 0 C2 1 2 1 2 1 Z " fill="#000000" transform="translate(362,906)"/>
<path d="" fill="#000000" transform="translate(0,0)"/>
<path d="" fill="#000000" transform="translate(0,0)"/>
<path d="" fill="#000000" transform="translate(0,0)"/>
<path d="" fill="#000000" transform="translate(0,0)"/>
<path d="" fill="#000000" transform="translate(0,0)"/>
<path d="" fill="#000000" transform="translate(0,0)"/>
<path d="M0 0 C2 1 2 1 2 1 Z " fill="#000000" transform="translate(1012,820)"/>
<path d="" fill="#000000" transform="translate(0,0)"/>
<path d="" fill="#000000" transform="translate(0,0)"/>
<path d="M0 0 C2 1 2 1 2 1 Z " fill="#000000" transform="translate(1078,813)"/>
<path d="M0 0 C2 1 2 1 2 1 Z " fill="#000000" transform="translate(744,813)"/>
<path d="M0 0 C2 1 2 1 2 1 Z " fill="#000000" transform="translate(612,813)"/>
<path d="M0 0 C2 1 2 1 2 1 Z " fill="#000000" transform="translate(188,808)"/>
<path d="M0 0 C2 1 2 1 2 1 Z " fill="#000000" transform="translate(183,807)"/>
<path d="M0 0 C2 1 2 1 2 1 Z " fill="#000000" transform="translate(246,806)"/>
<path d="M0 0 C2 1 2 1 2 1 Z " fill="#000000" transform="translate(770,804)"/>
<path d="" fill="#000000" transform="translate(0,0)"/>
<path d="" fill="#000000" transform="translate(0,0)"/>
<path d="" fill="#000000" transform="translate(0,0)"/>
<path d="" fill="#000000" transform="translate(0,0)"/>
<path d="" fill="#000000" transform="translate(0,0)"/>
<path d="" fill="#000000" transform="translate(0,0)"/>
<path d="" fill="#000000" transform="translate(0,0)"/>
<path d="" fill="#000000" transform="translate(0,0)"/>
<path d="" fill="#000000" transform="translate(0,0)"/>
<path d="M0 0 C2 1 2 1 2 1 Z " fill="#000000" transform="translate(228,729)"/>
<path d="M0 0 C2 1 2 1 2 1 Z " fill="#000000" transform="translate(155,729)"/>
<path d="" fill="#000000" transform="translate(0,0)"/>
<path d="M0 0 C2 1 2 1 2 1 Z " fill="#000000" transform="translate(232,728)"/>
<path d="M0 0 C2 1 2 1 2 1 Z " fill="#000000" transform="translate(151,728)"/>
<path d="" fill="#000000" transform="translate(0,0)"/>
<path d="" fill="#000000" transform="translate(0,0)"/>
<path d="" fill="#000000" transform="translate(0,0)"/>
<path d="" fill="#000000" transform="translate(0,0)"/>
<path d="" fill="#000000" transform="translate(0,0)"/>
<path d="M0 0 C2 1 2 1 2 1 Z " fill="#000000" transform="translate(1110,688)"/>
<path d="M0 0 C2 1 2 1 2 1 Z " fill="#000000" transform="translate(1080,687)"/>
<path d="M0 0 C2 1 2 1 2 1 Z " fill="#000000" transform="translate(1114,686)"/>
<path d="" fill="#000000" transform="translate(0,0)"/>
<path d="" fill="#000000" transform="translate(0,0)"/>
<path d="" fill="#000000" transform="translate(0,0)"/>
<path d="" fill="#000000" transform="translate(0,0)"/>
<path d="" fill="#000000" transform="translate(0,0)"/>
<path d="" fill="#000000" transform="translate(0,0)"/>
<path d="" fill="#000000" transform="translate(0,0)"/>
<path d="" fill="#000000" transform="translate(0,0)"/>
<path d="" fill="#000000" transform="translate(0,0)"/>
<path d="" fill="#000000" transform="translate(0,0)"/>
<path d="" fill="#000000" transform="translate(0,0)"/>
<path d="" fill="#000000" transform="translate(0,0)"/>
<path d="M0 0 C2 1 2 1 2 1 Z " fill="#000000" transform="translate(272,603)"/>
<path d="" fill="#000000" transform="translate(0,0)"/>
<path d="" fill="#000000" transform="translate(0,0)"/>
<path d="" fill="#000000" transform="translate(0,0)"/>
<path d="" fill="#000000" transform="translate(0,0)"/>
<path d="" fill="#000000" transform="translate(0,0)"/>
<path d="" fill="#000000" transform="translate(0,0)"/>
<path d="" fill="#000000" transform="translate(0,0)"/>
<path d="" fill="#000000" transform="translate(0,0)"/>
<path d="" fill="#000000" transform="translate(0,0)"/>
<path d="" fill="#000000" transform="translate(0,0)"/>
<path d="" fill="#000000" transform="translate(0,0)"/>
<path d="" fill="#000000" transform="translate(0,0)"/>
<path d="" fill="#000000" transform="translate(0,0)"/>
<path d="M0 0 C2 1 2 1 2 1 Z " fill="#000000" transform="translate(258,268)"/>
<path d="" fill="#000000" transform="translate(0,0)"/>
<path d="" fill="#000000" transform="translate(0,0)"/>
<path d="" fill="#000000" transform="translate(0,0)"/>
<path d="" fill="#000000" transform="translate(0,0)"/>
<path d="" fill="#000000" transform="translate(0,0)"/>
<path d="" fill="#000000" transform="translate(0,0)"/>
<path d="" fill="#000000" transform="translate(0,0)"/>
<path d="" fill="#000000" transform="translate(0,0)"/>
<path d="" fill="#000000" transform="translate(0,0)"/>
<path d="" fill="#000000" transform="translate(0,0)"/>
<path d="" fill="#000000" transform="translate(0,0)"/>
<path d="" fill="#000000" transform="translate(0,0)"/>
<path d="" fill="#000000" transform="translate(0,0)"/>
<path d="" fill="#000000" transform="translate(0,0)"/>
<path d="" fill="#000000" transform="translate(0,0)"/>
<path d="" fill="#000000" transform="translate(0,0)"/>
<path d="" fill="#000000" transform="translate(0,0)"/>
<path d="M0 0 C2 1 2 1 2 1 Z " fill="#000000" transform="translate(1095,163)"/>
<path d="M0 0 C2 1 2 1 2 1 Z " fill="#000000" transform="translate(1081,154)"/>
<path d="M0 0 C2 1 2 1 2 1 Z " fill="#000000" transform="translate(1079,153)"/>
<path d="M0 0 C2 1 2 1 2 1 Z " fill="#000000" transform="translate(964,153)"/>
<path d="M0 0 C2 1 2 1 2 1 Z " fill="#000000" transform="translate(130,153)"/>
<path d="M0 0 C2 1 2 1 2 1 Z " fill="#000000" transform="translate(1049,144)"/>
<path d="M0 0 C2 1 2 1 2 1 Z " fill="#000000" transform="translate(992,144)"/>
<path d="" fill="#000000" transform="translate(0,0)"/>
<path d="" fill="#000000" transform="translate(0,0)"/>
<path d="" fill="#000000" transform="translate(0,0)"/>
<path d="" fill="#000000" transform="translate(0,0)"/>
<path d="" fill="#000000" transform="translate(0,0)"/>
<path d="" fill="#000000" transform="translate(0,0)"/>
<path d="" fill="#000000" transform="translate(0,0)"/>
<path d="" fill="#000000" transform="translate(0,0)"/>
<path d="" fill="#000000" transform="translate(0,0)"/>
<path d="" fill="#000000" transform="translate(0,0)"/>
<path d="" fill="#000000" transform="translate(0,0)"/>
<path d="" fill="#000000" transform="translate(0,0)"/>
<path d="" fill="#000000" transform="translate(0,0)"/>
<path d="" fill="#000000" transform="translate(0,0)"/>
<path d="" fill="#000000" transform="translate(0,0)"/>
<path d="" fill="#000000" transform="translate(0,0)"/>
<path d="" fill="#000000" transform="translate(0,0)"/>
<path d="" fill="#000000" transform="translate(0,0)"/>
<path d="" fill="#000000" transform="translate(0,0)"/>
<path d="" fill="#000000" transform="translate(0,0)"/>
<path d="" fill="#000000" transform="translate(0,0)"/>
<path d="" fill="#000000" transform="translate(0,0)"/>
<path d="" fill="#000000" transform="translate(0,0)"/>
<path d="" fill="#000000" transform="translate(0,0)"/>
<path d="" fill="#000000" transform="translate(0,0)"/>
<path d="" fill="#000000" transform="translate(0,0)"/>
<path d="" fill="#000000" transform="translate(0,0)"/>
<path d="" fill="#000000" transform="translate(0,0)"/>
<path d="" fill="#000000" transform="translate(0,0)"/>
<path d="" fill="#000000" transform="translate(0,0)"/>
<path d="" fill="#000000" transform="translate(0,0)"/>
<path d="" fill="#000000" transform="translate(0,0)"/>
<path d="" fill="#000000" transform="translate(0,0)"/>
<path d="" fill="#000000" transform="translate(0,0)"/>
<path d="" fill="#000000" transform="translate(0,0)"/>
<path d="" fill="#000000" transform="translate(0,0)"/>
<path d="" fill="#000000" transform="translate(0,0)"/>
<path d="" fill="#000000" transform="translate(0,0)"/>
<path d="" fill="#000000" transform="translate(0,0)"/>
<path d="" fill="#000000" transform="translate(0,0)"/>
<path d="" fill="#000000" transform="translate(0,0)"/>
<path d="" fill="#000000" transform="translate(0,0)"/>
<path d="" fill="#000000" transform="translate(0,0)"/>
<path d="" fill="#000000" transform="translate(0,0)"/>
<path d="" fill="#000000" transform="translate(0,0)"/>
<path d="" fill="#000000" transform="translate(0,0)"/>
<path d="" fill="#000000" transform="translate(0,0)"/>
<path d="" fill="#000000" transform="translate(0,0)"/>
<path d="" fill="#000000" transform="translate(0,0)"/>
<path d="" fill="#000000" transform="translate(0,0)"/>
<path d="" fill="#000000" transform="translate(0,0)"/>
<path d="" fill="#000000" transform="translate(0,0)"/>
<path d="" fill="#000000" transform="translate(0,0)"/>
<path d="" fill="#000000" transform="translate(0,0)"/>
<path d="" fill="#000000" transform="translate(0,0)"/>
<path d="" fill="#000000" transform="translate(0,0)"/>
<path d="" fill="#000000" transform="translate(0,0)"/>
<path d="" fill="#000000" transform="translate(0,0)"/>
<path d="" fill="#000000" transform="translate(0,0)"/>
<path d="" fill="#000000" transform="translate(0,0)"/>
<path d="" fill="#000000" transform="translate(0,0)"/>
<path d="" fill="#000000" transform="translate(0,0)"/>
<path d="" fill="#000000" transform="translate(0,0)"/>
<path d="" fill="#000000" transform="translate(0,0)"/>
<path d="" fill="#000000" transform="translate(0,0)"/>
<path d="" fill="#000000" transform="translate(0,0)"/>
<path d="" fill="#000000" transform="translate(0,0)"/>
<path d="" fill="#000000" transform="translate(0,0)"/>
<path d="" fill="#000000" transform="translate(0,0)"/>
<path d="" fill="#000000" transform="translate(0,0)"/>
<path d="" fill="#000000" transform="translate(0,0)"/>
<path d="" fill="#000000" transform="translate(0,0)"/>
<path d="" fill="#000000" transform="translate(0,0)"/>
<path d="" fill="#000000" transform="translate(0,0)"/>
<path d="" fill="#000000" transform="translate(0,0)"/>
<path d="" fill="#000000" transform="translate(0,0)"/>
<path d="" fill="#000000" transform="translate(0,0)"/>
<path d="" fill="#000000" transform="translate(0,0)"/>
<path d="" fill="#000000" transform="translate(0,0)"/>
<path d="" fill="#000000" transform="translate(0,0)"/>
<path d="" fill="#000000" transform="translate(0,0)"/>
<path d="" fill="#000000" transform="translate(0,0)"/>
<path d="" fill="#000000" transform="translate(0,0)"/>
<path d="" fill="#000000" transform="translate(0,0)"/>
<path d="" fill="#000000" transform="translate(0,0)"/>
<path d="" fill="#000000" transform="translate(0,0)"/>
<path d="" fill="#000000" transform="translate(0,0)"/>
<path d="" fill="#000000" transform="translate(0,0)"/>
<path d="" fill="#000000" transform="translate(0,0)"/>
<path d="" fill="#000000" transform="translate(0,0)"/>
<path d="" fill="#000000" transform="translate(0,0)"/>
<path d="" fill="#000000" transform="translate(0,0)"/>
<path d="" fill="#000000" transform="translate(0,0)"/>
<path d="" fill="#000000" transform="translate(0,0)"/>
<path d="" fill="#000000" transform="translate(0,0)"/>
<path d="" fill="#000000" transform="translate(0,0)"/>
<path d="" fill="#000000" transform="translate(0,0)"/>
<path d="" fill="#000000" transform="translate(0,0)"/>
<path d="" fill="#000000" transform="translate(0,0)"/>
<path d="" fill="#000000" transform="translate(0,0)"/>
<path d="" fill="#000000" transform="translate(0,0)"/>
<path d="" fill="#000000" transform="translate(0,0)"/>
<path d="" fill="#000000" transform="translate(0,0)"/>
<path d="" fill="#000000" transform="translate(0,0)"/>
<path d="" fill="#000000" transform="translate(0,0)"/>
<path d="" fill="#000000" transform="translate(0,0)"/>
<path d="" fill="#000000" transform="translate(0,0)"/>
<path d="" fill="#000000" transform="translate(0,0)"/>
<path d="" fill="#000000" transform="translate(0,0)"/>
<path d="" fill="#000000" transform="translate(0,0)"/>
<path d="" fill="#000000" transform="translate(0,0)"/>
<path d="" fill="#000000" transform="translate(0,0)"/>
<path d="" fill="#000000" transform="translate(0,0)"/>
<path d="" fill="#000000" transform="translate(0,0)"/>
<path d="" fill="#000000" transform="translate(0,0)"/>
<path d="" fill="#000000" transform="translate(0,0)"/>
<path d="" fill="#000000" transform="translate(0,0)"/>
<path d="" fill="#000000" transform="translate(0,0)"/>
<path d="" fill="#000000" transform="translate(0,0)"/>
<path d="" fill="#000000" transform="translate(0,0)"/>
<path d="" fill="#000000" transform="translate(0,0)"/>
<path d="" fill="#000000" transform="translate(0,0)"/>
<path d="" fill="#000000" transform="translate(0,0)"/>
<path d="" fill="#000000" transform="translate(0,0)"/>
<path d="" fill="#000000" transform="translate(0,0)"/>
<path d="" fill="#000000" transform="translate(0,0)"/>
<path d="" fill="#000000" transform="translate(0,0)"/>
<path d="" fill="#000000" transform="translate(0,0)"/>
<path d="" fill="#000000" transform="translate(0,0)"/>
<path d="" fill="#000000" transform="translate(0,0)"/>
<path d="" fill="#000000" transform="translate(0,0)"/>
<path d="" fill="#000000" transform="translate(0,0)"/>
<path d="" fill="#000000" transform="translate(0,0)"/>
<path d="" fill="#000000" transform="translate(0,0)"/>
<path d="" fill="#000000" transform="translate(0,0)"/>
<path d="" fill="#000000" transform="translate(0,0)"/>
<path d="" fill="#000000" transform="translate(0,0)"/>
<path d="" fill="#000000" transform="translate(0,0)"/>
<path d="" fill="#000000" transform="translate(0,0)"/>
<path d="" fill="#000000" transform="translate(0,0)"/>
<path d="" fill="#000000" transform="translate(0,0)"/>
<path d="" fill="#000000" transform="translate(0,0)"/>
<path d="" fill="#000000" transform="translate(0,0)"/>
<path d="" fill="#000000" transform="translate(0,0)"/>
<path d="" fill="#000000" transform="translate(0,0)"/>
<path d="" fill="#000000" transform="translate(0,0)"/>
<path d="" fill="#000000" transform="translate(0,0)"/>
<path d="" fill="#000000" transform="translate(0,0)"/>
<path d="" fill="#000000" transform="translate(0,0)"/>
<path d="" fill="#000000" transform="translate(0,0)"/>
<path d="" fill="#000000" transform="translate(0,0)"/>
<path d="" fill="#000000" transform="translate(0,0)"/>
<path d="" fill="#000000" transform="translate(0,0)"/>
<path d="" fill="#000000" transform="translate(0,0)"/>
<path d="" fill="#000000" transform="translate(0,0)"/>
<path d="" fill="#000000" transform="translate(0,0)"/>
<path d="" fill="#000000" transform="translate(0,0)"/>
<path d="" fill="#000000" transform="translate(0,0)"/>
<path d="" fill="#000000" transform="translate(0,0)"/>
<path d="" fill="#000000" transform="translate(0,0)"/>
<path d="" fill="#000000" transform="translate(0,0)"/>
<path d="" fill="#000000" transform="translate(0,0)"/>
<path d="" fill="#000000" transform="translate(0,0)"/>
<path d="" fill="#000000" transform="translate(0,0)"/>
<path d="" fill="#000000" transform="translate(0,0)"/>
<path d="" fill="#000000" transform="translate(0,0)"/>
<path d="" fill="#000000" transform="translate(0,0)"/>
<path d="" fill="#000000" transform="translate(0,0)"/>
<path d="" fill="#000000" transform="translate(0,0)"/>
<path d="" fill="#000000" transform="translate(0,0)"/>
<path d="" fill="#000000" transform="translate(0,0)"/>
<path d="" fill="#000000" transform="translate(0,0)"/>
<path d="" fill="#000000" transform="translate(0,0)"/>
<path d="" fill="#000000" transform="translate(0,0)"/>
<path d="" fill="#000000" transform="translate(0,0)"/>
<path d="" fill="#000000" transform="translate(0,0)"/>
<path d="" fill="#000000" transform="translate(0,0)"/>
<path d="" fill="#000000" transform="translate(0,0)"/>
<path d="" fill="#000000" transform="translate(0,0)"/>
<path d="" fill="#000000" transform="translate(0,0)"/>
<path d="" fill="#000000" transform="translate(0,0)"/>
<path d="" fill="#000000" transform="translate(0,0)"/>
<path d="" fill="#000000" transform="translate(0,0)"/>
<path d="" fill="#000000" transform="translate(0,0)"/>
<path d="" fill="#000000" transform="translate(0,0)"/>
<path d="" fill="#000000" transform="translate(0,0)"/>
<path d="" fill="#000000" transform="translate(0,0)"/>
<path d="" fill="#000000" transform="translate(0,0)"/>
<path d="" fill="#000000" transform="translate(0,0)"/>
<path d="" fill="#000000" transform="translate(0,0)"/>
<path d="" fill="#000000" transform="translate(0,0)"/>
<path d="" fill="#000000" transform="translate(0,0)"/>
<path d="" fill="#000000" transform="translate(0,0)"/>
<path d="" fill="#000000" transform="translate(0,0)"/>
<path d="" fill="#000000" transform="translate(0,0)"/>
<path d="" fill="#000000" transform="translate(0,0)"/>
<path d="" fill="#000000" transform="translate(0,0)"/>
<path d="" fill="#000000" transform="translate(0,0)"/>
<path d="" fill="#000000" transform="translate(0,0)"/>
<path d="" fill="#000000" transform="translate(0,0)"/>
<path d="" fill="#000000" transform="translate(0,0)"/>
<path d="" fill="#000000" transform="translate(0,0)"/>
<path d="" fill="#000000" transform="translate(0,0)"/>
<path d="" fill="#000000" transform="translate(0,0)"/>
<path d="" fill="#000000" transform="translate(0,0)"/>
<path d="" fill="#000000" transform="translate(0,0)"/>
<path d="" fill="#000000" transform="translate(0,0)"/>
<path d="" fill="#000000" transform="translate(0,0)"/>
<path d="" fill="#000000" transform="translate(0,0)"/>
<path d="" fill="#000000" transform="translate(0,0)"/>
<path d="" fill="#000000" transform="translate(0,0)"/>
<path d="" fill="#000000" transform="translate(0,0)"/>
<path d="" fill="#000000" transform="translate(0,0)"/>
<path d="" fill="#000000" transform="translate(0,0)"/>
<path d="" fill="#000000" transform="translate(0,0)"/>
<path d="" fill="#000000" transform="translate(0,0)"/>
<path d="" fill="#000000" transform="translate(0,0)"/>
<path d="" fill="#000000" transform="translate(0,0)"/>
<path d="" fill="#000000" transform="translate(0,0)"/>
<path d="" fill="#000000" transform="translate(0,0)"/>
<path d="" fill="#000000" transform="translate(0,0)"/>
<path d="" fill="#000000" transform="translate(0,0)"/>
<path d="" fill="#000000" transform="translate(0,0)"/>
<path d="" fill="#000000" transform="translate(0,0)"/>
<path d="" fill="#000000" transform="translate(0,0)"/>
<path d="" fill="#000000" transform="translate(0,0)"/>
<path d="" fill="#000000" transform="translate(0,0)"/>
<path d="" fill="#000000" transform="translate(0,0)"/>
<path d="" fill="#000000" transform="translate(0,0)"/>
<path d="" fill="#000000" transform="translate(0,0)"/>
<path d="" fill="#000000" transform="translate(0,0)"/>
<path d="" fill="#000000" transform="translate(0,0)"/>
<path d="" fill="#000000" transform="translate(0,0)"/>
<path d="" fill="#000000" transform="translate(0,0)"/>
<path d="" fill="#000000" transform="translate(0,0)"/>
<path d="" fill="#000000" transform="translate(0,0)"/>
<path d="" fill="#000000" transform="translate(0,0)"/>
<path d="" fill="#000000" transform="translate(0,0)"/>
<path d="" fill="#000000" transform="translate(0,0)"/>
<path d="" fill="#000000" transform="translate(0,0)"/>
<path d="" fill="#000000" transform="translate(0,0)"/>
<path d="" fill="#000000" transform="translate(0,0)"/>
<path d="" fill="#000000" transform="translate(0,0)"/>
</svg>
